<?xml version="1.0" encoding="UTF-8" standalone="no"?>
<!-- Created with Inkscape (http://www.inkscape.org/) -->

<svg
   version="1.1"
   id="svg2"
   width="385.50668"
   height="175.69333"
   viewBox="0 0 385.50668 175.69333"
   xmlns="http://www.w3.org/2000/svg"
   xmlns:svg="http://www.w3.org/2000/svg">
  <defs
     id="defs6" />
  <g
     id="g8"
     transform="matrix(1.3333333,0,0,-1.3333333,0,175.69333)">
    <g
       id="g10"
       transform="scale(0.1)">
      <path
         d="M 2837.54,912.938 H 53.793 c -27.5117,0 -49.81644,-22.301 -49.81644,-49.813 V 189.078 c 0,-27.512 22.30474,-49.816 49.81644,-49.816 H 2837.54 c 27.51,0 49.82,22.304 49.82,49.816 v 674.047 c 0,27.512 -22.31,49.813 -49.82,49.813 z"
         style="fill:none;stroke:#98a2b3;stroke-width:7.9701;stroke-linecap:butt;stroke-linejoin:miter;stroke-miterlimit:10;stroke-dasharray:29.8883, 29.8883;stroke-dashoffset:0;stroke-opacity:1"
         id="path12" />
      <path
         d="M 121.352,511.602 H 376.469 V 766.719 H 121.352 Z"
         style="fill:#ffffff;fill-opacity:1;fill-rule:nonzero;stroke:#1f2937;stroke-width:7.9701;stroke-linecap:butt;stroke-linejoin:miter;stroke-miterlimit:10;stroke-dasharray:none;stroke-opacity:1"
         id="path14" />
      <path
         d="m 237.281,655.094 c 0.594,2.594 2.891,11.765 9.86,11.765 0.5,0 2.89,0 4.984,-1.296 -2.781,-0.5 -4.781,-3 -4.781,-5.391 0,-1.594 1.094,-3.484 3.797,-3.484 2.187,0 5.375,1.796 5.375,5.781 0,5.187 -5.875,6.578 -9.266,6.578 -5.781,0 -9.266,-5.281 -10.469,-7.578 -2.484,6.578 -7.875,7.578 -10.765,7.578 -10.36,0 -16.032,-12.859 -16.032,-15.344 0,-1 0.985,-1 1.188,-1 0.797,0 1.094,0.203 1.297,1.094 3.39,10.562 9.969,13.062 13.359,13.062 1.891,0 5.375,-0.906 5.375,-6.687 0,-3.078 -1.687,-9.766 -5.375,-23.719 -1.594,-6.172 -5.094,-10.359 -9.469,-10.359 -0.593,0 -2.89,0 -4.984,1.297 2.484,0.5 4.688,2.593 4.688,5.375 0,2.703 -2.204,3.5 -3.688,3.5 -3,0 -5.484,-2.594 -5.484,-5.782 0,-4.593 4.984,-6.578 9.359,-6.578 6.578,0 10.172,6.969 10.469,7.578 1.203,-3.687 4.781,-7.578 10.765,-7.578 10.266,0 15.938,12.86 15.938,15.344 0,1 -0.891,1 -1.188,1 -0.906,0 -1.093,-0.406 -1.296,-1.094 -3.297,-10.672 -10.063,-13.062 -13.25,-13.062 -3.891,0 -5.485,3.187 -5.485,6.578 0,2.187 0.594,4.391 1.688,8.766 l 3.39,13.656"
         style="fill:#1f2937;fill-opacity:1;fill-rule:nonzero;stroke:none"
         id="path16" />
      <path
         d="m 283.594,653.578 c 0,1.125 -0.828,2.656 -2.781,2.656 -1.891,0 -3.907,-1.812 -3.907,-3.828 0,-1.187 0.907,-2.656 2.782,-2.656 2.031,0 3.906,1.953 3.906,3.828 z m -14.219,-35.422 c -0.281,-0.906 -0.641,-1.734 -0.641,-2.922 0,-3.281 2.797,-5.937 6.625,-5.937 6.985,0 10.047,9.625 10.047,10.672 0,0.906 -0.906,0.906 -1.109,0.906 -0.984,0 -1.047,-0.422 -1.328,-1.187 -1.61,-5.579 -4.672,-8.438 -7.391,-8.438 -1.39,0 -1.75,0.906 -1.75,2.453 0,1.594 0.485,2.922 1.125,4.453 0.688,1.891 1.453,3.766 2.219,5.578 0.641,1.672 3.141,8.032 3.422,8.86 0.219,0.703 0.422,1.531 0.422,2.234 0,3.281 -2.797,5.922 -6.625,5.922 -6.907,0 -10.11,-9.484 -10.11,-10.672 0,-0.906 0.969,-0.906 1.188,-0.906 0.969,0 1.047,0.359 1.25,1.125 1.812,6 4.875,8.5 7.469,8.5 1.109,0 1.734,-0.547 1.734,-2.438 0,-1.609 -0.422,-2.656 -2.156,-6.968 l -4.391,-11.235"
         style="fill:#1f2937;fill-opacity:1;fill-rule:nonzero;stroke:none"
         id="path18" />
      <path
         d="m 1093.61,639.16 c 0,86.106 -69.8,155.906 -155.907,155.906 -86.109,0 -155.91,-69.8 -155.91,-155.906 0,-86.105 69.801,-155.906 155.91,-155.906 86.107,0 155.907,69.801 155.907,155.906 z"
         style="fill:#ffffff;fill-opacity:1;fill-rule:nonzero;stroke:#1f2937;stroke-width:8.9664;stroke-linecap:butt;stroke-linejoin:miter;stroke-miterlimit:10;stroke-dasharray:8.9664, 9.9628;stroke-dashoffset:0;stroke-opacity:1"
         id="path20" />
      <path
         d="m 944.625,654.609 c 0.5,1.782 0.797,3.079 0.797,5.766 0,6.484 -3.984,10.672 -11.453,10.672 -7.875,0 -13.063,-5.188 -15.453,-8.672 -0.5,5.672 -4.672,8.672 -9.157,8.672 -4.593,0 -6.484,-3.891 -7.375,-5.688 -1.796,-3.39 -3.093,-9.359 -3.093,-9.656 0,-1 1,-1 1.187,-1 1,0 1.11,0.094 1.703,2.297 1.688,7.063 3.688,11.859 7.266,11.859 1.703,0 3.094,-0.812 3.094,-4.593 0,-2.094 -0.297,-3.188 -1.594,-8.375 l -5.781,-23.016 c -0.297,-1.484 -0.891,-3.781 -0.891,-4.281 0,-1.797 1.391,-2.688 2.891,-2.688 1.187,0 2.984,0.797 3.687,2.782 0.094,0.203 1.297,4.89 1.891,7.375 l 2.187,8.968 c 0.594,2.203 1.203,4.391 1.703,6.688 0.188,0.594 0.985,3.875 1.094,4.484 0.297,0.891 3.391,6.469 6.766,9.156 2.203,1.594 5.281,3.5 9.578,3.5 4.281,0 5.375,-3.39 5.375,-6.984 0,-0.5 0,-2.297 -1,-6.281 l -11.359,-45.828 c -0.297,-1.203 -0.297,-1.407 -0.297,-1.594 0,-1.5 1.093,-2.703 2.797,-2.703 3.078,0 3.781,2.89 4.078,4 l 11.359,45.14"
         style="fill:#1f2937;fill-opacity:1;fill-rule:nonzero;stroke:none"
         id="path22" />
      <path
         d="m 968.594,655.578 c 0,1.125 -0.828,2.656 -2.781,2.656 -1.891,0 -3.907,-1.812 -3.907,-3.828 0,-1.187 0.907,-2.656 2.782,-2.656 2.031,0 3.906,1.953 3.906,3.828 z m -14.219,-35.422 c -0.281,-0.906 -0.641,-1.734 -0.641,-2.922 0,-3.281 2.797,-5.937 6.625,-5.937 6.985,0 10.047,9.625 10.047,10.672 0,0.906 -0.906,0.906 -1.109,0.906 -0.984,0 -1.047,-0.422 -1.328,-1.187 -1.61,-5.579 -4.672,-8.438 -7.391,-8.438 -1.39,0 -1.75,0.906 -1.75,2.453 0,1.594 0.485,2.922 1.125,4.453 0.688,1.891 1.453,3.766 2.219,5.578 0.641,1.672 3.141,8.032 3.422,8.86 0.219,0.703 0.422,1.531 0.422,2.234 0,3.281 -2.797,5.922 -6.625,5.922 -6.907,0 -10.11,-9.484 -10.11,-10.672 0,-0.906 0.969,-0.906 1.188,-0.906 0.969,0 1.047,0.359 1.25,1.125 1.812,6 4.875,8.5 7.469,8.5 1.109,0 1.734,-0.547 1.734,-2.438 0,-1.609 -0.422,-2.656 -2.156,-6.968 l -4.391,-11.235"
         style="fill:#1f2937;fill-opacity:1;fill-rule:nonzero;stroke:none"
         id="path24" />
      <path
         d="m 1811.25,639.16 c 0,86.106 -69.8,155.906 -155.91,155.906 -86.11,0 -155.91,-69.8 -155.91,-155.906 0,-86.105 69.8,-155.906 155.91,-155.906 86.11,0 155.91,69.801 155.91,155.906 z"
         style="fill:#ffffff;fill-opacity:1;fill-rule:nonzero;stroke:#1f2937;stroke-width:8.9664;stroke-linecap:butt;stroke-linejoin:miter;stroke-miterlimit:10;stroke-dasharray:8.9664, 9.9628;stroke-dashoffset:0;stroke-opacity:1"
         id="path26" />
      <path
         d="m 1636.41,662.172 h 11.26 c -3.29,-14.75 -4.19,-19.031 -4.19,-25.719 0,-1.484 0,-4.172 0.8,-7.562 1,-4.391 2.1,-4.985 3.58,-4.985 2,0 4.09,1.797 4.09,3.782 0,0.593 0,0.796 -0.59,2.187 -2.89,7.188 -2.89,13.656 -2.89,16.453 0,5.281 0.69,10.656 1.78,15.844 h 11.36 c 1.3,0 4.89,0 4.89,3.391 0,2.39 -2.09,2.39 -3.98,2.39 h -33.39 c -2.19,0 -5.97,0 -10.36,-4.687 -3.49,-3.891 -6.08,-8.469 -6.08,-8.969 0,-0.094 0,-1 1.2,-1 0.8,0 0.99,0.406 1.59,1.203 4.88,7.672 10.66,7.672 12.66,7.672 h 5.67 c -3.18,-12.063 -8.56,-24.125 -12.75,-33.188 -0.79,-1.5 -0.79,-1.687 -0.79,-2.39 0,-1.891 1.59,-2.688 2.89,-2.688 2.98,0 3.78,2.782 4.98,6.469 1.39,4.594 1.39,4.781 2.69,9.766 l 5.58,22.031"
         style="fill:#1f2937;fill-opacity:1;fill-rule:nonzero;stroke:none"
         id="path28" />
      <path
         d="m 1689.59,653.578 c 0,1.125 -0.82,2.656 -2.78,2.656 -1.89,0 -3.9,-1.812 -3.9,-3.828 0,-1.187 0.9,-2.656 2.78,-2.656 2.03,0 3.9,1.953 3.9,3.828 z m -14.21,-35.422 c -0.29,-0.906 -0.65,-1.734 -0.65,-2.922 0,-3.281 2.8,-5.937 6.63,-5.937 6.98,0 10.05,9.625 10.05,10.672 0,0.906 -0.91,0.906 -1.11,0.906 -0.99,0 -1.05,-0.422 -1.33,-1.187 -1.61,-5.579 -4.67,-8.438 -7.39,-8.438 -1.39,0 -1.75,0.906 -1.75,2.453 0,1.594 0.48,2.922 1.12,4.453 0.69,1.891 1.46,3.766 2.22,5.578 0.64,1.672 3.14,8.032 3.42,8.86 0.22,0.703 0.43,1.531 0.43,2.234 0,3.281 -2.8,5.922 -6.63,5.922 -6.91,0 -10.11,-9.484 -10.11,-10.672 0,-0.906 0.97,-0.906 1.19,-0.906 0.97,0 1.05,0.359 1.25,1.125 1.81,6 4.87,8.5 7.47,8.5 1.11,0 1.73,-0.547 1.73,-2.438 0,-1.609 -0.42,-2.656 -2.15,-6.968 l -4.39,-11.235"
         style="fill:#1f2937;fill-opacity:1;fill-rule:nonzero;stroke:none"
         id="path30" />
      <path
         d="m 2528.88,639.16 c 0,86.106 -69.8,155.906 -155.9,155.906 -86.11,0 -155.91,-69.8 -155.91,-155.906 0,-86.105 69.8,-155.906 155.91,-155.906 86.1,0 155.9,69.801 155.9,155.906 z"
         style="fill:#c9cdd3;fill-opacity:1;fill-rule:nonzero;stroke:#747b86;stroke-width:8.9664;stroke-linecap:butt;stroke-linejoin:miter;stroke-miterlimit:10;stroke-dasharray:none;stroke-opacity:1"
         id="path32" />
      <path
         d="m 2386.48,669.703 1.41,1.391 c 2.99,2.984 6.27,6.375 13.05,6.875 1.09,0.094 2,0.094 2,1.89 0,0.797 -0.5,1.204 -1.3,1.204 -2.59,0 -5.48,-0.297 -8.17,-0.297 -3.3,0 -6.78,0.297 -9.97,0.297 -0.59,0 -1.89,0 -1.89,-1.891 0,-1.109 1,-1.203 1.48,-1.203 0.71,0 3.6,-0.203 3.6,-2.297 0,-1.688 -2.3,-4.281 -2.69,-4.781 l -23.12,-26.594 -10.96,29.594 c -0.59,1.39 -0.59,1.593 -0.59,1.687 0,2.391 4.87,2.391 5.87,2.391 1.39,0 2.39,0 2.39,2 0,1.094 -1.2,1.094 -1.5,1.094 -2.78,0 -9.76,-0.297 -12.54,-0.297 -2.5,0 -8.67,0.297 -11.17,0.297 -0.6,0 -1.9,0 -1.9,-2 0,-1.094 1,-1.094 2.3,-1.094 5.99,0 6.38,-0.891 7.27,-3.391 l 12.26,-32.781 c 0.1,-0.297 0.39,-1.391 0.39,-1.688 0,-0.296 -3.98,-16.343 -4.48,-18.14 -1.3,-5.485 -1.39,-5.781 -9.36,-5.875 -1.89,0 -2.69,0 -2.69,-2 0,-1.094 1.19,-1.094 1.39,-1.094 2.8,0 9.77,0.297 12.57,0.297 2.78,0 9.95,-0.297 12.75,-0.297 0.7,0 1.89,0 1.89,2 0,1.094 -0.89,1.094 -2.8,1.094 -0.19,0 -2.08,0 -3.78,0.187 -2.1,0.203 -2.69,0.407 -2.69,1.594 0,0.703 0.89,4.188 1.39,6.281 l 3.49,14.047 c 0.5,1.906 0.6,2.203 1.4,3.094 l 24.7,28.406"
         style="fill:#1f2937;fill-opacity:1;fill-rule:nonzero;stroke:none"
         id="path34" />
      <path
         d="m 2407.59,641.578 c 0,1.125 -0.82,2.656 -2.78,2.656 -1.89,0 -3.9,-1.812 -3.9,-3.828 0,-1.187 0.9,-2.656 2.78,-2.656 2.03,0 3.9,1.953 3.9,3.828 z m -14.21,-35.422 c -0.29,-0.906 -0.65,-1.734 -0.65,-2.922 0,-3.281 2.8,-5.937 6.63,-5.937 6.98,0 10.05,9.625 10.05,10.672 0,0.906 -0.91,0.906 -1.11,0.906 -0.99,0 -1.05,-0.422 -1.33,-1.187 -1.61,-5.579 -4.67,-8.438 -7.39,-8.438 -1.39,0 -1.75,0.906 -1.75,2.453 0,1.594 0.48,2.922 1.12,4.453 0.69,1.891 1.46,3.766 2.22,5.578 0.64,1.672 3.14,8.032 3.42,8.86 0.22,0.703 0.43,1.531 0.43,2.234 0,3.281 -2.8,5.922 -6.63,5.922 -6.91,0 -10.11,-9.484 -10.11,-10.672 0,-0.906 0.97,-0.906 1.19,-0.906 0.97,0 1.05,0.359 1.25,1.125 1.81,6 4.87,8.5 7.47,8.5 1.11,0 1.73,-0.547 1.73,-2.438 0,-1.609 -0.42,-2.656 -2.15,-6.968 l -4.39,-11.235"
         style="fill:#1f2937;fill-opacity:1;fill-rule:nonzero;stroke:none"
         id="path36" />
      <path
         d="m 810.141,1058.66 h 255.121 v 255.121 H 810.141 Z"
         style="fill:#ffffff;fill-opacity:1;fill-rule:nonzero;stroke:#1f2937;stroke-width:7.9701;stroke-linecap:butt;stroke-linejoin:miter;stroke-miterlimit:10;stroke-dasharray:none;stroke-opacity:1"
         id="path38" />
      <path
         d="m 905,1144.66 c -0.109,-0.21 -0.406,-1.5 -0.406,-1.6 0,-1.39 1.5,-1.39 2.39,-1.39 2,0 2,0.21 2.594,2.28 0.297,1.61 6.281,25.52 6.375,25.72 4.188,-6.98 11.86,-9.87 19.828,-9.87 20.032,0 31.188,15.25 31.188,28.31 0,6.97 -3.078,10.75 -6.375,13.25 3.594,2.98 7.672,9.47 7.672,16.34 0,8.47 -6.172,13.25 -15.547,13.25 -14.25,0 -28.985,-11.06 -32.578,-25.51 z m 45.141,56.29 c -2.407,-1.68 -4.891,-1.68 -6.282,-1.68 -0.406,0 -4.781,0 -4.781,0.79 0,1.6 4.875,1.6 6.172,1.6 1.797,0 2.984,0 4.891,-0.71 z m 3.375,3.5 c -3.282,0.8 -6.078,0.8 -7.969,0.8 -3.188,0 -11.25,0 -11.25,-5.39 0,-4.19 5.969,-4.19 9.453,-4.19 1.703,0 6.188,0 10.672,1.91 0.797,-1.5 1.094,-3.5 1.094,-5.19 0,-3.59 -2.594,-15.64 -5.688,-20.83 -3.078,-4.87 -7.969,-8.17 -14.25,-8.17 -9.265,0 -17.031,5.58 -17.031,14.55 0,2 0.5,4.09 0.703,5.08 1.484,5.89 4.672,18.93 5.875,23.32 3.188,10.86 15.25,21.02 27.094,21.02 3.687,0 5.89,-1.78 5.89,-5.67 0,-3.1 -2.39,-13.36 -4.593,-17.24"
         style="fill:#1f2937;fill-opacity:1;fill-rule:nonzero;stroke:none"
         id="path40" />
      <path
         d="M 380.457,639.16 H 730.844"
         style="fill:none;stroke:#1f2937;stroke-width:7.9701;stroke-linecap:butt;stroke-linejoin:miter;stroke-miterlimit:10;stroke-dasharray:none;stroke-opacity:1"
         id="path42" />
      <path
         d="m 765.961,639.16 -49.484,18.688 16.359,-18.688 -16.359,-18.687 z"
         style="fill:#1f2937;fill-opacity:1;fill-rule:nonzero;stroke:#1f2937;stroke-width:7.9701;stroke-linecap:butt;stroke-linejoin:miter;stroke-miterlimit:10;stroke-dasharray:none;stroke-opacity:1"
         id="path44" />
      <path
         d="M 937.703,1054.67 V 846.02"
         style="fill:none;stroke:#1f2937;stroke-width:7.9701;stroke-linecap:butt;stroke-linejoin:miter;stroke-miterlimit:10;stroke-dasharray:none;stroke-opacity:1"
         id="path46" />
      <path
         d="m 937.703,810.898 18.684,49.485 -18.684,-16.356 -18.687,16.356 z"
         style="fill:#1f2937;fill-opacity:1;fill-rule:nonzero;stroke:#1f2937;stroke-width:7.9701;stroke-linecap:butt;stroke-linejoin:miter;stroke-miterlimit:10;stroke-dasharray:none;stroke-opacity:1"
         id="path48" />
      <path
         d="m 1098.09,639.16 h 350.39"
         style="fill:none;stroke:#1f2937;stroke-width:7.9701;stroke-linecap:butt;stroke-linejoin:miter;stroke-miterlimit:10;stroke-dasharray:none;stroke-opacity:1"
         id="path50" />
      <path
         d="m 1483.6,639.16 -49.49,18.688 16.36,-18.688 -16.36,-18.687 z"
         style="fill:#1f2937;fill-opacity:1;fill-rule:nonzero;stroke:#1f2937;stroke-width:7.9701;stroke-linecap:butt;stroke-linejoin:miter;stroke-miterlimit:10;stroke-dasharray:none;stroke-opacity:1"
         id="path52" />
      <path
         d="m 1815.73,639.16 h 350.39"
         style="fill:none;stroke:#1f2937;stroke-width:7.9701;stroke-linecap:butt;stroke-linejoin:miter;stroke-miterlimit:10;stroke-dasharray:none;stroke-opacity:1"
         id="path54" />
      <path
         d="m 2201.23,639.16 -49.48,18.688 16.36,-18.688 -16.36,-18.687 z"
         style="fill:#1f2937;fill-opacity:1;fill-rule:nonzero;stroke:#1f2937;stroke-width:7.9701;stroke-linecap:butt;stroke-linejoin:miter;stroke-miterlimit:10;stroke-dasharray:none;stroke-opacity:1"
         id="path56" />
      <path
         d="m 691.141,349.766 c 0.703,2.781 0.703,3.672 0.703,5.031 0,7.984 -5.922,9.859 -10.672,9.859 -8.344,0 -12.734,-5.922 -14.172,-7.797 -0.547,4.844 -4.219,7.797 -8.703,7.797 -3.766,0 -5.656,-2.781 -6.906,-5.203 -1.532,-3.14 -2.782,-8.25 -2.782,-8.609 0,-0.813 0.625,-1.078 1.25,-1.078 0.985,0 1.172,0.453 1.61,2.25 1.703,7.078 3.594,10.406 6.64,10.406 2.704,0 2.704,-2.875 2.704,-4.219 0,-1.89 -0.719,-4.672 -1.266,-7 -0.625,-2.328 -1.516,-6.187 -1.875,-7.265 l -3.594,-14.719 c -0.625,-2.156 -0.625,-2.328 -0.625,-2.61 0,-1.156 0.797,-2.593 2.781,-2.593 1.25,0 2.594,0.812 3.219,1.875 0.281,0.547 1,3.422 1.438,5.203 l 2.062,8 c 1,4.203 2.703,10.765 2.781,11.484 0.188,0.531 2.422,4.844 5.657,7.985 2.609,2.421 6.015,3.859 9.515,3.859 4.844,0 4.844,-4.766 4.844,-6.281 0,-2.516 -0.359,-3.766 -0.812,-5.75 l -10.141,-40.203 c -0.359,-1.25 -0.359,-1.422 -0.359,-1.969 0,-1.516 1.078,-2.594 2.781,-2.594 2.875,0 3.5,2.594 3.781,3.672 l 10.141,40.469"
         style="fill:#4c545f;fill-opacity:1;fill-rule:nonzero;stroke:none"
         id="path58" />
      <path
         d="m 712.813,352.328 c 0,1.438 -1.079,2.391 -2.454,2.391 -1.609,0 -3.343,-1.547 -3.343,-3.281 0,-1.5 1.078,-2.407 2.39,-2.407 1.922,0 3.407,1.797 3.407,3.297 z m -3.579,-20.875 c 0.235,0.594 0.766,2.031 1.016,2.563 0.172,0.547 0.406,1.14 0.406,2.156 0,3.359 -2.984,5.203 -5.968,5.203 -6.11,0 -9.032,-7.891 -9.032,-9.203 0,-0.297 0.235,-0.844 1.063,-0.844 0.844,0 1.031,0.36 1.203,0.906 1.672,5.797 4.844,7.172 6.516,7.172 1.203,0 1.625,-0.781 1.625,-2.156 0,-1.187 -0.36,-2.094 -0.485,-2.516 l -3.109,-7.656 c -0.719,-1.734 -0.719,-1.844 -1.5,-3.89 -0.781,-1.782 -1.078,-2.563 -1.078,-3.579 0,-3.046 2.75,-5.203 6.047,-5.203 6.046,0 9.031,7.891 9.031,9.203 0,0.125 -0.063,0.844 -1.141,0.844 -0.828,0 -0.89,-0.297 -1.25,-1.437 -0.953,-3.047 -3.406,-6.641 -6.453,-6.641 -1.078,0 -1.625,0.719 -1.625,2.156 0,1.188 0.359,2.094 1.141,3.953 l 3.593,8.969"
         style="fill:#4c545f;fill-opacity:1;fill-rule:nonzero;stroke:none"
         id="path60" />
      <path
         d="m 812.531,354.703 c 1.25,0 2.953,0 2.953,1.875 0,1.985 -1.968,1.985 -3.312,1.985 h -54.734 c -1.344,0 -3.329,0 -3.329,-1.985 0,-1.875 1.797,-1.875 2.969,-1.875 z m -0.359,-18.312 c 1.344,0 3.312,0 3.312,1.984 0,1.875 -1.703,1.875 -2.953,1.875 h -55.453 c -1.172,0 -2.969,0 -2.969,-1.875 0,-1.984 1.985,-1.984 3.329,-1.984 h 54.734"
         style="fill:#4c545f;fill-opacity:1;fill-rule:nonzero;stroke:none"
         id="path62" />
      <path
         d="m 898.578,376.328 c 0,6.188 -4.297,12.016 -13.812,12.016 -2.25,0 -4.125,-0.36 -6.641,-1.703 -7.984,-4.125 -12.75,-12.828 -15.25,-21.625 l -14.094,-56.438 c -0.093,-0.531 0.532,-0.984 1.172,-0.984 0.719,0 1.156,0.265 1.25,0.453 l 6.188,24.484 c 2.156,-5.562 6.468,-8.515 12.39,-8.515 6.907,0 13.547,3.047 18.391,7.718 4.125,3.938 6.734,9.5 6.734,15.516 0,5.563 -2.422,11.047 -6.547,13.641 4.391,2.25 10.219,8.531 10.219,15.437 z m -16.687,-15.344 c -1.438,-0.359 -2.953,-0.625 -4.485,-0.625 -1.343,0 -2.687,0 -3.953,0.438 1.078,0.641 2.781,0.641 3.953,0.641 1.532,0 3.047,0 4.485,-0.454 z m 11.312,16.86 c 0,-5.641 -3.328,-13 -7.984,-15.25 -2.25,0.812 -4.5,1.078 -7.094,1.078 -4.672,0 -7.359,-0.719 -7.359,-3.047 0,-1.891 2.062,-2.516 6.281,-2.516 3.141,0 5.203,0.532 7.984,1.25 2.875,-1.968 3.86,-6.187 3.86,-9.593 0,-6.11 -1.891,-12.828 -6.016,-17.313 -3.406,-3.687 -7.984,-6.109 -13,-6.109 -6.734,0 -10.687,4.75 -10.687,11.312 0,0.891 0,1.875 0.265,2.86 l 6.11,24.5 c 2.062,7.625 8.875,21.093 19.296,21.093 4.297,0 8.344,-2.156 8.344,-8.265"
         style="fill:#4c545f;fill-opacity:1;fill-rule:nonzero;stroke:none"
         id="path64" />
      <path
         d="m 930.906,334.078 c 0,4.375 0,20.703 -14.656,20.703 -14.656,0 -14.656,-16.328 -14.656,-20.703 0,-4.297 0,-20.328 14.656,-20.328 14.656,0 14.656,16.031 14.656,20.328 z M 916.25,315.656 c -2.516,0 -6.578,1.203 -8.016,6.157 -0.968,3.468 -0.968,9.343 -0.968,13.046 0,4.016 0,8.61 0.843,11.844 1.5,5.391 6.047,6.156 8.141,6.156 2.75,0 6.688,-1.312 8.016,-5.859 0.89,-3.172 0.953,-7.531 0.953,-12.141 0,-3.828 0,-9.875 -1.016,-13.218 -1.672,-5.203 -5.984,-5.985 -7.953,-5.985"
         style="fill:#4c545f;fill-opacity:1;fill-rule:nonzero;stroke:none"
         id="path66" />
      <path
         d="m 1023.34,345.547 c 1.27,0 3.14,0 3.14,1.891 0,1.968 -1.7,1.968 -3.14,1.968 h -25.559 v 25.657 c 0,1.437 0,3.14 -1.984,3.14 -1.875,0 -1.875,-1.875 -1.875,-3.14 V 349.406 H 968.25 c -1.25,0 -3.141,0 -3.141,-1.89 0,-1.969 1.704,-1.969 3.141,-1.969 h 25.672 v -25.656 c 0,-1.438 0,-3.141 1.969,-3.141 1.89,0 1.89,1.875 1.89,3.141 v 25.656 h 25.559"
         style="fill:#4c545f;fill-opacity:1;fill-rule:nonzero;stroke:none"
         id="path68" />
      <path
         d="m 1104.58,376.328 c 0,6.188 -4.3,12.016 -13.81,12.016 -2.25,0 -4.13,-0.36 -6.64,-1.703 -7.99,-4.125 -12.75,-12.828 -15.25,-21.625 l -14.1,-56.438 c -0.09,-0.531 0.53,-0.984 1.17,-0.984 0.72,0 1.16,0.265 1.25,0.453 l 6.19,24.484 c 2.16,-5.562 6.47,-8.515 12.39,-8.515 6.91,0 13.55,3.047 18.39,7.718 4.13,3.938 6.74,9.5 6.74,15.516 0,5.563 -2.43,11.047 -6.55,13.641 4.39,2.25 10.22,8.531 10.22,15.437 z m -16.69,-15.344 c -1.44,-0.359 -2.95,-0.625 -4.48,-0.625 -1.35,0 -2.69,0 -3.96,0.438 1.08,0.641 2.78,0.641 3.96,0.641 1.53,0 3.04,0 4.48,-0.454 z m 11.31,16.86 c 0,-5.641 -3.32,-13 -7.98,-15.25 -2.25,0.812 -4.5,1.078 -7.09,1.078 -4.68,0 -7.36,-0.719 -7.36,-3.047 0,-1.891 2.06,-2.516 6.28,-2.516 3.14,0 5.2,0.532 7.98,1.25 2.88,-1.968 3.86,-6.187 3.86,-9.593 0,-6.11 -1.89,-12.828 -6.01,-17.313 -3.41,-3.687 -7.99,-6.109 -13,-6.109 -6.74,0 -10.69,4.75 -10.69,11.312 0,0.891 0,1.875 0.26,2.86 l 6.11,24.5 c 2.07,7.625 8.88,21.093 19.3,21.093 4.3,0 8.34,-2.156 8.34,-8.265"
         style="fill:#4c545f;fill-opacity:1;fill-rule:nonzero;stroke:none"
         id="path70" />
      <path
         d="m 1125.47,352.984 c 0,1.797 -0.24,1.797 -2.03,1.797 -3.94,-3.828 -10.05,-3.828 -12.21,-3.828 v -2.328 c 1.57,0 5.5,0 9.1,1.672 v -30.219 c 0,-1.969 0,-2.75 -6.16,-2.75 h -2.58 V 315 c 3.3,0.234 7.96,0.234 11.32,0.234 3.34,0 8.01,0 11.29,-0.234 v 2.328 h -2.56 c -6.17,0 -6.17,0.781 -6.17,2.75 v 32.906"
         style="fill:#4c545f;fill-opacity:1;fill-rule:nonzero;stroke:none"
         id="path72" />
      <path
         d="m 1190.14,361.25 c -3.31,-0.625 -4.3,-3.5 -4.3,-4.844 0,-1.703 1.25,-3.234 3.5,-3.234 2.5,0 4.94,2.156 4.94,5.297 0,4.125 -4.5,6.187 -8.7,6.187 -5.39,0 -8.53,-4.75 -9.61,-6.64 -1.7,4.406 -5.66,6.64 -9.95,6.64 -9.61,0 -14.82,-11.484 -14.82,-13.812 0,-0.813 0.63,-1.078 1.25,-1.078 0.82,0 1.08,0.453 1.27,0.984 2.78,8.891 8.7,11.672 12.11,11.672 2.61,0 4.94,-1.703 4.94,-5.922 0,-3.234 -3.86,-17.594 -5.04,-21.906 -0.71,-2.781 -3.4,-8.344 -8.34,-8.344 -1.8,0 -3.67,0.641 -4.58,1.172 2.42,0.453 4.22,2.516 4.22,4.844 0,2.25 -1.7,3.234 -3.4,3.234 -2.6,0 -4.94,-2.25 -4.94,-5.297 0,-4.39 4.84,-6.187 8.62,-6.187 5.21,0 8.25,4.297 9.6,6.734 2.25,-5.922 7.53,-6.734 9.95,-6.734 9.7,0 14.81,11.656 14.81,13.812 0,0.453 -0.26,1.078 -1.17,1.078 -0.98,0 -1.08,-0.359 -1.52,-1.703 -1.98,-6.453 -7.18,-10.953 -11.84,-10.953 -2.61,0 -5.03,1.625 -5.03,5.922 0,1.984 1.27,6.922 2.06,10.328 0.36,1.609 2.78,11.297 2.97,11.938 1.08,3.218 3.77,7.984 8.34,7.984 1.61,0 3.32,-0.281 4.66,-1.172"
         style="fill:#4c545f;fill-opacity:1;fill-rule:nonzero;stroke:none"
         id="path74" />
      <path
         d="m 1218.81,352.328 c 0,1.438 -1.08,2.391 -2.45,2.391 -1.61,0 -3.34,-1.547 -3.34,-3.281 0,-1.5 1.07,-2.407 2.39,-2.407 1.92,0 3.4,1.797 3.4,3.297 z m -3.58,-20.875 c 0.24,0.594 0.77,2.031 1.02,2.563 0.17,0.547 0.41,1.14 0.41,2.156 0,3.359 -2.99,5.203 -5.97,5.203 -6.11,0 -9.03,-7.891 -9.03,-9.203 0,-0.297 0.23,-0.844 1.06,-0.844 0.84,0 1.03,0.36 1.2,0.906 1.67,5.797 4.85,7.172 6.52,7.172 1.2,0 1.62,-0.781 1.62,-2.156 0,-1.187 -0.36,-2.094 -0.48,-2.516 l -3.11,-7.656 c -0.72,-1.734 -0.72,-1.844 -1.5,-3.89 -0.78,-1.782 -1.08,-2.563 -1.08,-3.579 0,-3.046 2.75,-5.203 6.05,-5.203 6.04,0 9.03,7.891 9.03,9.203 0,0.125 -0.06,0.844 -1.14,0.844 -0.83,0 -0.89,-0.297 -1.25,-1.437 -0.95,-3.047 -3.41,-6.641 -6.45,-6.641 -1.08,0 -1.63,0.719 -1.63,2.156 0,1.188 0.36,2.094 1.14,3.953 l 3.59,8.969"
         style="fill:#4c545f;fill-opacity:1;fill-rule:nonzero;stroke:none"
         id="path76" />
      <path
         d="m 1362.5,343.109 h 10.22 c -1.34,-5.656 -3.67,-14.984 -3.67,-22.437 0,-0.625 0,-3.938 0.81,-7.172 0.89,-3.406 1.7,-4.484 3.5,-4.484 1.87,0 3.86,1.609 3.86,3.672 0,0.625 -0.09,0.906 -0.64,2.062 -2.78,6.281 -2.78,12.922 -2.78,14.984 0,2.25 0,6.204 1.53,13.375 h 10.5 c 1.15,0 4.48,0 4.48,3.235 0,2.328 -1.97,2.328 -3.67,2.328 h -31.05 c -2.15,0 -5.29,0 -9.51,-4.219 -2.42,-2.422 -5.66,-7.359 -5.66,-8.078 0,-0.984 0.99,-0.984 1.25,-0.984 0.72,0 0.91,0.187 1.44,1.078 4.41,6.64 9.87,6.64 11.67,6.64 h 5.11 c -3.86,-13.546 -10.05,-26.296 -10.67,-27.64 -0.63,-1.25 -1.53,-3.141 -1.53,-3.86 0,-1.156 0.81,-2.593 2.78,-2.593 3.23,0 4.05,3.234 5.92,10.5 l 6.11,23.593"
         style="fill:#4c545f;fill-opacity:1;fill-rule:nonzero;stroke:none"
         id="path78" />
      <path
         d="m 1411.81,337.328 c 0,1.438 -1.08,2.391 -2.45,2.391 -1.61,0 -3.34,-1.547 -3.34,-3.281 0,-1.5 1.07,-2.407 2.39,-2.407 1.92,0 3.4,1.797 3.4,3.297 z m -3.58,-20.875 c 0.24,0.594 0.77,2.031 1.02,2.563 0.17,0.547 0.41,1.14 0.41,2.156 0,3.359 -2.99,5.203 -5.97,5.203 -6.11,0 -9.03,-7.891 -9.03,-9.203 0,-0.297 0.23,-0.844 1.06,-0.844 0.84,0 1.03,0.36 1.2,0.906 1.67,5.797 4.85,7.172 6.52,7.172 1.2,0 1.62,-0.781 1.62,-2.156 0,-1.187 -0.36,-2.094 -0.48,-2.516 l -3.11,-7.656 c -0.72,-1.734 -0.72,-1.844 -1.5,-3.89 -0.78,-1.782 -1.08,-2.563 -1.08,-3.579 0,-3.046 2.75,-5.203 6.05,-5.203 6.04,0 9.03,7.891 9.03,9.203 0,0.125 -0.06,0.844 -1.14,0.844 -0.83,0 -0.89,-0.297 -1.25,-1.437 -0.95,-3.047 -3.41,-6.641 -6.45,-6.641 -1.08,0 -1.63,0.719 -1.63,2.156 0,1.188 0.36,2.094 1.14,3.953 l 3.59,8.969"
         style="fill:#4c545f;fill-opacity:1;fill-rule:nonzero;stroke:none"
         id="path80" />
      <path
         d="m 1511.53,339.703 c 1.25,0 2.95,0 2.95,1.875 0,1.985 -1.96,1.985 -3.31,1.985 h -54.73 c -1.35,0 -3.33,0 -3.33,-1.985 0,-1.875 1.8,-1.875 2.97,-1.875 z m -0.36,-18.312 c 1.35,0 3.31,0 3.31,1.984 0,1.875 -1.7,1.875 -2.95,1.875 h -55.45 c -1.17,0 -2.97,0 -2.97,-1.875 0,-1.984 1.98,-1.984 3.33,-1.984 h 54.73"
         style="fill:#4c545f;fill-opacity:1;fill-rule:nonzero;stroke:none"
         id="path82" />
      <path
         d="m 1561.52,372.266 -13.29,-0.985 V 368.5 c 6.1,0 6.91,-0.625 6.91,-5.016 v -46.578 c 0,-4.125 -0.98,-4.125 -6.91,-4.125 V 310 c 4.22,0.172 5.93,0.266 10.05,0.266 4.22,0 5.74,-0.094 10.14,-0.266 v 2.781 c -5.92,0 -6.9,0 -6.9,4.125 v 55.36"
         style="fill:#4c545f;fill-opacity:1;fill-rule:nonzero;stroke:none"
         id="path84" />
      <path
         d="m 1614.42,329.109 c 0,11.75 -9.33,21.094 -20.36,21.094 -11.39,0 -20.45,-9.609 -20.45,-21.094 0,-11.218 9.33,-20.093 20.36,-20.093 11.39,0 20.45,9.062 20.45,20.093 z m -20.36,-17.578 c -4.48,0 -8.25,2.235 -10.33,5.735 -2.32,3.765 -2.42,8.531 -2.42,12.656 0,3.312 0,8.437 2.25,12.109 2.69,4.578 7.17,5.922 10.41,5.922 5.11,0 8.8,-2.875 10.59,-5.922 2.07,-3.765 2.16,-8.343 2.16,-12.109 0,-3.328 0,-8.531 -2.25,-12.469 -2.52,-4.14 -6.64,-5.922 -10.41,-5.922"
         style="fill:#4c545f;fill-opacity:1;fill-rule:nonzero;stroke:none"
         id="path86" />
      <path
         d="m 1628.22,326.063 c 2.23,-1.438 5.01,-2.782 9.16,-2.782 8.51,0 14.98,6.094 14.98,13.188 0,4.39 -2.52,7.453 -3.69,8.703 3.6,3.234 7.81,3.234 8.89,3.234 -0.45,-0.265 -1.17,-0.718 -1.17,-2.328 0,-1 0.63,-2.703 2.69,-2.703 1.26,0 2.7,0.906 2.7,2.781 0,1.703 -1.26,4.485 -4.86,4.485 -2.59,0 -6.62,-0.985 -9.76,-4.203 -2.44,1.968 -5.93,3.218 -9.71,3.218 -8.51,0 -14.98,-6.093 -14.98,-13.187 0,-4.578 2.7,-7.813 4.12,-9.156 -0.17,-0.172 -2.68,-3.313 -2.68,-7.438 0,-3.062 1.43,-6.281 3.86,-7.906 -4.58,-1.438 -8.16,-4.75 -8.16,-8.969 0,-6.375 8.87,-11.484 20.36,-11.484 11.03,0 20.45,4.75 20.45,11.672 0,3.671 -1.7,7.625 -5.01,9.781 -5.03,3.125 -10.24,3.125 -18.75,3.125 -1.8,0 -4.68,0 -5.39,0.187 -2.6,0.532 -4.32,2.953 -4.32,5.828 0,1.438 0.46,2.782 1.27,3.954 z m 9.16,-0.36 c -8,0 -8,8.797 -8,10.766 0,2.422 0.18,5.469 1.71,7.625 1.35,1.797 3.77,3.14 6.29,3.14 8.06,0 8.06,-8.703 8.06,-10.765 0,-2.063 0,-10.766 -8.06,-10.766 z m 4.12,-15.25 c 2.88,0 13.91,-0.094 13.91,-7.359 0,-5.125 -6.91,-9.156 -15.35,-9.156 -8.79,0 -15.43,4.218 -15.43,9.156 0,1.437 0.9,7.359 8.6,7.359 h 8.27"
         style="fill:#4c545f;fill-opacity:1;fill-rule:nonzero;stroke:none"
         id="path88" />
      <path
         d="m 1679.52,349.656 -12.93,-0.984 v -2.781 c 5.74,0 6.55,-0.532 6.55,-4.938 v -24.047 c 0,-4.125 -0.98,-4.125 -6.91,-4.125 V 310 c 4.04,0.172 5.93,0.266 9.86,0.266 1.44,0 5.21,0 9.61,-0.266 v 2.781 c -5.82,0 -6.18,0.453 -6.18,3.953 z m 0.26,15.61 c 0,2.703 -2.15,4.859 -4.84,4.859 -2.78,0 -4.85,-2.25 -4.85,-4.859 0,-2.594 2.07,-4.844 4.85,-4.844 2.69,0 4.84,2.156 4.84,4.844"
         style="fill:#4c545f;fill-opacity:1;fill-rule:nonzero;stroke:none"
         id="path90" />
      <path
         d="m 1717.16,345.891 v 2.781 h -13 v 16.516 h -2.52 c -0.09,-7.547 -3.23,-16.782 -11.94,-17.047 v -2.25 h 7.82 v -24.766 c 0,-10.047 7.26,-12.109 12.01,-12.109 6.02,0 9.16,5.734 9.16,12.109 v 5.109 h -2.52 v -4.843 c 0,-6.641 -2.78,-9.86 -6.01,-9.86 -6,0 -6,7.891 -6,9.5 v 24.86 h 13"
         style="fill:#4c545f;fill-opacity:1;fill-rule:nonzero;stroke:none"
         id="path92" />
      <path
         d="m 1771.61,361.406 c 0.97,0 2.45,0 2.45,1.547 0,1.563 -1.48,1.563 -2.45,1.563 h -37.67 c -0.97,0 -2.46,0 -2.46,-1.563 0,-1.547 1.49,-1.547 2.46,-1.547 h 37.67"
         style="fill:#4c545f;fill-opacity:1;fill-rule:nonzero;stroke:none"
         id="path94" />
      <path
         d="m 1803.47,385.984 c 0,1.797 -0.24,1.797 -2.03,1.797 -3.94,-3.828 -10.05,-3.828 -12.21,-3.828 v -2.328 c 1.57,0 5.5,0 9.1,1.672 v -30.219 c 0,-1.969 0,-2.75 -6.16,-2.75 h -2.58 V 348 c 3.3,0.234 7.96,0.234 11.32,0.234 3.34,0 8.01,0 11.29,-0.234 v 2.328 h -2.56 c -6.17,0 -6.17,0.781 -6.17,2.75 v 32.906"
         style="fill:#4c545f;fill-opacity:1;fill-rule:nonzero;stroke:none"
         id="path96" />
      <path
         d="m 1853.59,288.641 c 0,0.453 -0.26,0.718 -0.79,1.343 -11.58,10.594 -15.08,26.75 -15.08,42.454 0,13.906 2.69,30.765 15.34,42.796 0.36,0.36 0.53,0.625 0.53,1.079 0,0.625 -0.43,0.984 -1.07,0.984 -1.08,0 -9.14,-6.453 -14,-16.234 -4.3,-8.625 -6.46,-17.86 -6.46,-28.547 0,-6.453 0.82,-16.688 5.75,-27.266 5.28,-11.047 13.63,-17.594 14.71,-17.594 0.64,0 1.07,0.36 1.07,0.985"
         style="fill:#4c545f;fill-opacity:1;fill-rule:nonzero;stroke:none"
         id="path98" />
      <path
         d="m 1904.14,334.766 c 0.7,2.781 0.7,3.672 0.7,5.031 0,7.984 -5.92,9.859 -10.67,9.859 -8.34,0 -12.73,-5.922 -14.17,-7.797 -0.55,4.844 -4.22,7.797 -8.7,7.797 -3.77,0 -5.66,-2.781 -6.91,-5.203 -1.53,-3.14 -2.78,-8.25 -2.78,-8.609 0,-0.813 0.62,-1.078 1.25,-1.078 0.98,0 1.17,0.453 1.61,2.25 1.7,7.078 3.59,10.406 6.64,10.406 2.7,0 2.7,-2.875 2.7,-4.219 0,-1.89 -0.72,-4.672 -1.26,-7 -0.63,-2.328 -1.52,-6.187 -1.88,-7.265 l -3.59,-14.719 c -0.63,-2.156 -0.63,-2.328 -0.63,-2.61 0,-1.156 0.8,-2.593 2.78,-2.593 1.25,0 2.6,0.812 3.22,1.875 0.28,0.547 1,3.422 1.44,5.203 l 2.06,8 c 1,4.203 2.71,10.765 2.78,11.484 0.19,0.531 2.43,4.844 5.66,7.985 2.61,2.421 6.02,3.859 9.52,3.859 4.84,0 4.84,-4.766 4.84,-6.281 0,-2.516 -0.36,-3.766 -0.81,-5.75 l -10.14,-40.203 c -0.36,-1.25 -0.36,-1.422 -0.36,-1.969 0,-1.516 1.08,-2.594 2.78,-2.594 2.87,0 3.5,2.594 3.78,3.672 l 10.14,40.469"
         style="fill:#4c545f;fill-opacity:1;fill-rule:nonzero;stroke:none"
         id="path100" />
      <path
         d="m 1925.81,337.328 c 0,1.438 -1.08,2.391 -2.45,2.391 -1.61,0 -3.34,-1.547 -3.34,-3.281 0,-1.5 1.07,-2.407 2.39,-2.407 1.92,0 3.4,1.797 3.4,3.297 z m -3.58,-20.875 c 0.24,0.594 0.77,2.031 1.02,2.563 0.17,0.547 0.41,1.14 0.41,2.156 0,3.359 -2.99,5.203 -5.97,5.203 -6.11,0 -9.03,-7.891 -9.03,-9.203 0,-0.297 0.23,-0.844 1.06,-0.844 0.84,0 1.03,0.36 1.2,0.906 1.67,5.797 4.85,7.172 6.52,7.172 1.2,0 1.62,-0.781 1.62,-2.156 0,-1.187 -0.36,-2.094 -0.48,-2.516 l -3.11,-7.656 c -0.72,-1.734 -0.72,-1.844 -1.5,-3.89 -0.78,-1.782 -1.08,-2.563 -1.08,-3.579 0,-3.046 2.75,-5.203 6.05,-5.203 6.04,0 9.03,7.891 9.03,9.203 0,0.125 -0.06,0.844 -1.14,0.844 -0.83,0 -0.89,-0.297 -1.25,-1.437 -0.95,-3.047 -3.41,-6.641 -6.45,-6.641 -1.08,0 -1.63,0.719 -1.63,2.156 0,1.188 0.36,2.094 1.14,3.953 l 3.59,8.969"
         style="fill:#4c545f;fill-opacity:1;fill-rule:nonzero;stroke:none"
         id="path102" />
      <path
         d="m 1963.73,332.516 c 0,7.359 -1.07,17.234 -5.73,27.187 -5.3,11.047 -13.64,17.594 -14.72,17.594 -0.89,0 -1.08,-0.719 -1.08,-0.984 0,-0.454 0.19,-0.719 0.82,-1.344 5.2,-4.672 15.07,-16.875 15.07,-42.453 0,-12.828 -2.34,-30.688 -15.34,-42.797 -0.19,-0.266 -0.55,-0.625 -0.55,-1.078 0,-0.266 0.19,-0.985 1.08,-0.985 1.08,0 9.16,6.469 14,16.25 4.3,8.61 6.45,17.844 6.45,28.61"
         style="fill:#4c545f;fill-opacity:1;fill-rule:nonzero;stroke:none"
         id="path104" />
      <path
         d="m 2062.19,370.703 c 6.45,7.266 10.14,7.531 13.9,7.797 0.72,0.094 1.08,0.906 1.08,1.625 0,0.719 -0.54,1.156 -1.17,1.156 -0.17,0 -2.87,-0.265 -7.36,-0.265 -2.87,0 -6.01,0.265 -8.8,0.265 -0.43,0 -1.61,0 -1.61,-1.609 0,-1.078 0.99,-1.172 1.54,-1.172 1.87,-0.172 2.86,-0.797 2.86,-1.969 0,-1.625 -2.5,-4.312 -2.6,-4.484 l -21.36,-23.875 -10.5,26.656 c -0.53,1.25 -0.53,1.438 -0.53,1.61 0,2.062 4.3,2.062 5.11,2.062 1.17,0 2.25,0 2.25,1.625 0,0.891 -0.81,1.156 -1.44,1.156 -1.79,0 -3.86,-0.172 -5.65,-0.172 -1.89,0 -5.47,-0.093 -5.57,-0.093 -2.96,0 -3.14,0 -5.29,0.093 -1.44,0.079 -3.5,0.172 -4.94,0.172 -0.44,0 -1.7,0 -1.7,-1.609 0,-1.172 0.98,-1.172 2.06,-1.172 5.3,0 5.66,-0.891 6.47,-2.953 l 11.65,-29.703 c 0.46,-1.172 0.46,-1.344 0.46,-1.438 0,-0.359 -3.6,-14.718 -4.03,-16.328 -1.18,-4.844 -1.27,-5.203 -8.35,-5.297 -1.44,0 -2.44,0 -2.44,-1.609 0,-0.813 0.65,-1.172 1.36,-1.172 1.44,0 4.13,0.094 5.64,0.172 1.9,0.094 2.07,0.094 5.57,0.094 2.87,0 3.06,0 5.75,-0.094 1.79,-0.078 4.03,-0.172 5.75,-0.172 0.62,0 1.78,0 1.78,1.609 0,1.172 -0.89,1.172 -2.78,1.172 -0.36,0 -1.97,0 -3.41,0.188 -1.97,0.265 -2.06,0.625 -2.06,1.422 0,0.64 0.72,3.5 1.17,5.203 l 1.52,6.375 c 1.26,4.578 1.26,4.765 2.15,8.609 0.27,0.281 0.46,0.36 0.99,1 l 22.53,25.125"
         style="fill:#4c545f;fill-opacity:1;fill-rule:nonzero;stroke:none"
         id="path106" />
      <path
         d="m 2081.81,347.328 c 0,1.438 -1.08,2.391 -2.45,2.391 -1.61,0 -3.34,-1.547 -3.34,-3.281 0,-1.5 1.07,-2.407 2.39,-2.407 1.92,0 3.4,1.797 3.4,3.297 z m -3.58,-20.875 c 0.24,0.594 0.77,2.031 1.02,2.563 0.17,0.547 0.41,1.14 0.41,2.156 0,3.359 -2.99,5.203 -5.97,5.203 -6.11,0 -9.03,-7.891 -9.03,-9.203 0,-0.297 0.23,-0.844 1.06,-0.844 0.84,0 1.03,0.36 1.2,0.906 1.67,5.797 4.85,7.172 6.52,7.172 1.2,0 1.62,-0.781 1.62,-2.156 0,-1.187 -0.36,-2.094 -0.48,-2.516 l -3.11,-7.656 c -0.72,-1.734 -0.72,-1.844 -1.5,-3.89 -0.78,-1.782 -1.08,-2.563 -1.08,-3.579 0,-3.046 2.75,-5.203 6.05,-5.203 6.04,0 9.03,7.891 9.03,9.203 0,0.125 -0.06,0.844 -1.14,0.844 -0.83,0 -0.89,-0.297 -1.25,-1.437 -0.95,-3.047 -3.41,-6.641 -6.45,-6.641 -1.08,0 -1.63,0.719 -1.63,2.156 0,1.188 0.36,2.094 1.14,3.953 l 3.59,8.969"
         style="fill:#4c545f;fill-opacity:1;fill-rule:nonzero;stroke:none"
         id="path108" />
      <path
         d="m 2184.48,350.234 c 0,2.422 -0.79,3.063 -1.34,3.063 -1.16,0 -1.25,-2.078 -1.34,-3.328 -0.36,-6.641 -5.39,-13.094 -12.66,-13.094 -5.2,0 -9.33,3.047 -14.7,7.891 -5.3,4.937 -9.88,8.609 -15.99,8.609 -9.78,0 -15.34,-10.047 -15.34,-18.75 0,-2.328 0.72,-3.047 1.34,-3.047 1,0 1.36,1.703 1.36,2.156 0.53,11.297 8.25,14.266 12.64,14.266 5.21,0 9.35,-3.062 14.72,-7.906 5.3,-4.922 9.88,-8.61 15.97,-8.61 9.78,0 15.34,10.047 15.34,18.75"
         style="fill:#4c545f;fill-opacity:1;fill-rule:nonzero;stroke:none"
         id="path110" />
      <path
         d="m 2235.38,374.828 c 0,3.047 0.17,3.672 4.39,3.672 h 11.67 c 8.78,0 12.47,-7 12.47,-12.375 0,-6.906 -6.02,-13.109 -14.46,-13.109 h -14.07 z m 21.98,-22.797 c 8.87,1.797 15.16,7.453 15.16,14.094 0,7.891 -8.61,15.156 -20.46,15.156 h -33.39 V 378.5 h 2.08 c 6.91,0 7.08,-0.984 7.08,-4.297 v -47.109 c 0,-3.328 -0.17,-4.313 -7.08,-4.313 h -2.08 V 320 h 35.91 c 12.11,0 20.55,7.984 20.55,16.328 0,8.078 -7.82,14.625 -17.77,15.703 z m -17.59,-29.25 c -4.22,0 -4.39,0.625 -4.39,3.672 v 24.328 h 16.95 c 10.4,0 13.9,-8.797 13.9,-14.265 0,-6.922 -5.39,-13.735 -14.62,-13.735 h -11.84"
         style="fill:#4c545f;fill-opacity:1;fill-rule:nonzero;stroke:none"
         id="path112" />
      <path
         d="m 2315.89,340.547 c 1.97,0 2.42,0 2.42,1.891 0,9.234 -5.01,17.765 -16.51,17.765 -10.77,0 -19.19,-9.344 -19.19,-20.469 0,-11.75 9.42,-20.718 20.36,-20.718 10.95,0 15.34,9.593 15.34,11.656 0,0.641 -0.45,1.172 -1.25,1.172 -0.9,0 -1.17,-0.625 -1.26,-0.985 -3.05,-9.156 -11.03,-9.328 -12.38,-9.328 -4.31,0 -7.98,2.422 -10.04,5.469 -2.97,4.391 -3.07,9.781 -3.07,13.547 z m -25.48,2.156 c 0.81,13.813 8.89,15.25 11.39,15.25 4.93,0 10.33,-3.765 10.42,-15.25 h -21.81"
         style="fill:#4c545f;fill-opacity:1;fill-rule:nonzero;stroke:none"
         id="path114" />
      <path
         d="m 2336.97,340.547 c 0,3.687 0.98,16.875 11.22,16.875 v -0.094 c -0.17,-0.094 -1.61,-1.172 -1.61,-3.328 0,-2.422 1.87,-3.937 3.94,-3.937 1.89,0 3.95,1.343 3.95,4.031 0,2.875 -2.69,5.562 -6.74,5.562 -5.37,0 -9.14,-3.765 -11.21,-9.328 h -0.08 v 9.328 l -12.75,-0.984 v -2.781 c 6.11,0 6.9,-0.625 6.9,-5.032 v -23.953 c 0,-4.125 -0.98,-4.125 -6.9,-4.125 V 320 c 4.76,0.172 5.92,0.266 10.5,0.266 3.59,0 5.75,-0.094 11.39,-0.266 v 2.781 h -1.78 c -6.57,0 -6.83,0.985 -6.83,4.313 v 13.453"
         style="fill:#4c545f;fill-opacity:1;fill-rule:nonzero;stroke:none"
         id="path116" />
      <path
         d="m 2373.69,343.234 c 0,9.516 6.73,14.188 12.39,14.188 5.28,0 6.45,-4.406 6.45,-9.781 v -20.735 c 0,-4.125 -0.98,-4.125 -6.9,-4.125 V 320 c 4.21,0.172 5.92,0.266 10.23,0.266 4.3,0 5.47,-0.094 10.22,-0.266 v 2.781 c -4.58,0 -6.81,0 -6.91,2.782 v 17.234 c 0,7.437 0,10.047 -2.51,13.187 -2.07,2.516 -5.47,3.672 -9.96,3.672 -8.34,0 -12.2,-6.187 -13.47,-8.703 h -0.07 v 8.703 l -13.02,-0.984 v -2.781 c 6.09,0 6.91,-0.625 6.91,-5.032 v -23.953 c 0,-4.125 -0.99,-4.125 -6.91,-4.125 V 320 c 4.22,0.172 5.92,0.266 10.24,0.266 4.29,0 5.46,-0.094 10.21,-0.266 v 2.781 c -5.92,0 -6.9,0 -6.9,4.125 v 16.328"
         style="fill:#4c545f;fill-opacity:1;fill-rule:nonzero;stroke:none"
         id="path118" />
      <path
         d="m 2452.42,339.109 c 0,11.75 -9.33,21.094 -20.36,21.094 -11.39,0 -20.45,-9.609 -20.45,-21.094 0,-11.218 9.33,-20.093 20.36,-20.093 11.39,0 20.45,9.062 20.45,20.093 z m -20.36,-17.578 c -4.48,0 -8.25,2.235 -10.33,5.735 -2.32,3.765 -2.42,8.531 -2.42,12.656 0,3.312 0,8.437 2.25,12.109 2.69,4.578 7.17,5.922 10.41,5.922 5.11,0 8.8,-2.875 10.59,-5.922 2.07,-3.765 2.16,-8.343 2.16,-12.109 0,-3.328 0,-8.531 -2.25,-12.469 -2.52,-4.14 -6.64,-5.922 -10.41,-5.922"
         style="fill:#4c545f;fill-opacity:1;fill-rule:nonzero;stroke:none"
         id="path120" />
      <path
         d="m 2490.53,334.984 c 0,-7.984 -4.48,-13.734 -10.95,-13.734 -7.44,0 -7.89,3.859 -7.89,8.703 v 29.703 l -13.55,-0.984 v -2.781 c 6.91,0 6.91,-0.266 6.91,-8.25 v -13.469 c 0,-5.828 0,-9.594 4.12,-12.734 2.61,-1.797 6.28,-2.422 9.88,-2.422 4.67,0 9.06,2.062 11.67,7.437 h 0.08 v -7.437 l 13.28,0.984 v 2.781 c -6.1,0 -6.91,0.625 -6.91,5.032 v 31.843 l -13.54,-0.984 v -2.781 c 6.09,0 6.9,-0.625 6.9,-5.032 v -15.875"
         style="fill:#4c545f;fill-opacity:1;fill-rule:nonzero;stroke:none"
         id="path122" />
      <path
         d="m 2522.52,382.266 -13.29,-0.985 V 378.5 c 6.1,0 6.91,-0.625 6.91,-5.016 v -46.578 c 0,-4.125 -0.98,-4.125 -6.91,-4.125 V 320 c 4.22,0.172 5.93,0.266 10.05,0.266 4.22,0 5.74,-0.094 10.14,-0.266 v 2.781 c -5.92,0 -6.9,0 -6.9,4.125 v 55.36"
         style="fill:#4c545f;fill-opacity:1;fill-rule:nonzero;stroke:none"
         id="path124" />
      <path
         d="m 2548.52,382.266 -13.29,-0.985 V 378.5 c 6.1,0 6.91,-0.625 6.91,-5.016 v -46.578 c 0,-4.125 -0.98,-4.125 -6.91,-4.125 V 320 c 4.22,0.172 5.93,0.266 10.05,0.266 4.22,0 5.74,-0.094 10.14,-0.266 v 2.781 c -5.92,0 -6.9,0 -6.9,4.125 v 55.36"
         style="fill:#4c545f;fill-opacity:1;fill-rule:nonzero;stroke:none"
         id="path126" />
      <path
         d="m 2573.52,359.656 -12.93,-0.984 v -2.781 c 5.74,0 6.55,-0.532 6.55,-4.938 v -24.047 c 0,-4.125 -0.98,-4.125 -6.91,-4.125 V 320 c 4.04,0.172 5.93,0.266 9.86,0.266 1.44,0 5.21,0 9.61,-0.266 v 2.781 c -5.82,0 -6.18,0.453 -6.18,3.953 z m 0.26,15.61 c 0,2.703 -2.15,4.859 -4.84,4.859 -2.78,0 -4.85,-2.25 -4.85,-4.859 0,-2.594 2.07,-4.844 4.85,-4.844 2.69,0 4.84,2.156 4.84,4.844"
         style="fill:#4c545f;fill-opacity:1;fill-rule:nonzero;stroke:none"
         id="path128" />
      <path
         d="m 2613.59,298.641 c 0,0.453 -0.26,0.718 -0.79,1.343 -11.58,10.594 -15.08,26.75 -15.08,42.454 0,13.906 2.69,30.765 15.34,42.796 0.36,0.36 0.53,0.625 0.53,1.079 0,0.625 -0.43,0.984 -1.07,0.984 -1.08,0 -9.14,-6.453 -14,-16.234 -4.3,-8.625 -6.46,-17.86 -6.46,-28.547 0,-6.453 0.82,-16.688 5.75,-27.266 5.28,-11.047 13.63,-17.594 14.71,-17.594 0.64,0 1.07,0.36 1.07,0.985"
         style="fill:#4c545f;fill-opacity:1;fill-rule:nonzero;stroke:none"
         id="path130" />
      <path
         d="m 2643.5,353.109 h 10.22 c -1.34,-5.656 -3.67,-14.984 -3.67,-22.437 0,-0.625 0,-3.938 0.81,-7.172 0.89,-3.406 1.7,-4.484 3.5,-4.484 1.87,0 3.86,1.609 3.86,3.672 0,0.625 -0.09,0.906 -0.64,2.062 -2.78,6.281 -2.78,12.922 -2.78,14.984 0,2.25 0,6.204 1.53,13.375 h 10.5 c 1.15,0 4.48,0 4.48,3.235 0,2.328 -1.97,2.328 -3.67,2.328 h -31.05 c -2.15,0 -5.29,0 -9.51,-4.219 -2.42,-2.422 -5.66,-7.359 -5.66,-8.078 0,-0.984 0.99,-0.984 1.25,-0.984 0.72,0 0.91,0.187 1.44,1.078 4.41,6.64 9.87,6.64 11.67,6.64 h 5.11 c -3.86,-13.546 -10.05,-26.296 -10.67,-27.64 -0.63,-1.25 -1.53,-3.141 -1.53,-3.86 0,-1.156 0.81,-2.593 2.78,-2.593 3.23,0 4.05,3.234 5.92,10.5 l 6.11,23.593"
         style="fill:#4c545f;fill-opacity:1;fill-rule:nonzero;stroke:none"
         id="path132" />
      <path
         d="m 2691.81,347.328 c 0,1.438 -1.08,2.391 -2.45,2.391 -1.61,0 -3.34,-1.547 -3.34,-3.281 0,-1.5 1.07,-2.407 2.39,-2.407 1.92,0 3.4,1.797 3.4,3.297 z m -3.58,-20.875 c 0.24,0.594 0.77,2.031 1.02,2.563 0.17,0.547 0.41,1.14 0.41,2.156 0,3.359 -2.99,5.203 -5.97,5.203 -6.11,0 -9.03,-7.891 -9.03,-9.203 0,-0.297 0.23,-0.844 1.06,-0.844 0.84,0 1.03,0.36 1.2,0.906 1.67,5.797 4.85,7.172 6.52,7.172 1.2,0 1.62,-0.781 1.62,-2.156 0,-1.187 -0.36,-2.094 -0.48,-2.516 l -3.11,-7.656 c -0.72,-1.734 -0.72,-1.844 -1.5,-3.89 -0.78,-1.782 -1.08,-2.563 -1.08,-3.579 0,-3.046 2.75,-5.203 6.05,-5.203 6.04,0 9.03,7.891 9.03,9.203 0,0.125 -0.06,0.844 -1.14,0.844 -0.83,0 -0.89,-0.297 -1.25,-1.437 -0.95,-3.047 -3.41,-6.641 -6.45,-6.641 -1.08,0 -1.63,0.719 -1.63,2.156 0,1.188 0.36,2.094 1.14,3.953 l 3.59,8.969"
         style="fill:#4c545f;fill-opacity:1;fill-rule:nonzero;stroke:none"
         id="path134" />
      <path
         d="m 2729.73,342.516 c 0,7.359 -1.07,17.234 -5.73,27.187 -5.3,11.047 -13.64,17.594 -14.72,17.594 -0.89,0 -1.08,-0.719 -1.08,-0.984 0,-0.454 0.19,-0.719 0.82,-1.344 5.2,-4.672 15.07,-16.875 15.07,-42.453 0,-12.828 -2.34,-30.688 -15.34,-42.797 -0.19,-0.266 -0.55,-0.625 -0.55,-1.078 0,-0.266 0.19,-0.985 1.08,-0.985 1.08,0 9.16,6.469 14,16.25 4.3,8.61 6.45,17.844 6.45,28.61"
         style="fill:#4c545f;fill-opacity:1;fill-rule:nonzero;stroke:none"
         id="path136" />
      <path
         d="m 2426.02,101.984 c 0,1.985 -1.44,3.329 -3.41,3.329 -2.42,0 -4.84,-2.329 -4.84,-4.75 0,-1.7974 1.34,-3.3286 3.4,-3.3286 2.42,0 4.85,2.25 4.85,4.7496 z m 1.26,-43.1559 c 0,0.4532 -0.26,1.0782 -1.17,1.0782 -0.98,0 -1.08,-0.4532 -1.44,-1.6094 -2.15,-7.3594 -5.83,-11.0469 -9.23,-11.0469 -1.44,0 -2.16,0.7188 -2.16,2.9688 0,2.1562 0.72,4.125 1.44,5.8281 1.61,4.3125 1.61,4.4844 2.78,7.2656 1.44,3.8594 3.41,8.9844 4.3,11.4844 0.64,1.625 0.64,2.5156 0.64,3.3281 0,5.1094 -4.05,7.5313 -7.63,7.5313 -8.72,0 -12.2,-12.8282 -12.2,-13.8125 0,-0.8125 0.62,-1.0782 1.25,-1.0782 0.98,0 1.08,0.5313 1.44,1.7032 1.87,6.375 5.29,10.9531 9.23,10.9531 0.91,0 2.16,-0.1875 2.16,-2.875 0,-2.25 -0.89,-4.5781 -1.71,-6.6406 l -6.37,-16.5938 c -0.63,-1.7187 -1.16,-3.1406 -1.16,-4.7656 0,-4.2188 3.14,-7.5313 7.72,-7.5313 8.71,0 12.11,12.9219 12.11,13.8125"
         style="fill:#747b86;fill-opacity:1;fill-rule:nonzero;stroke:none"
         id="path138" />
      <path
         d="m 2520.53,75.7031 c 1.25,0 2.95,0 2.95,1.875 0,1.9844 -1.96,1.9844 -3.31,1.9844 h -54.73 c -1.35,0 -3.33,0 -3.33,-1.9844 0,-1.875 1.8,-1.875 2.97,-1.875 z m -0.36,-18.3125 c 1.35,0 3.31,0 3.31,1.9844 0,1.875 -1.7,1.875 -2.95,1.875 h -55.45 c -1.17,0 -2.97,0 -2.97,-1.875 0,-1.9844 1.98,-1.9844 3.33,-1.9844 h 54.73"
         style="fill:#747b86;fill-opacity:1;fill-rule:nonzero;stroke:none"
         id="path140" />
      <path
         d="m 2581.28,103.344 c 0,2.234 -0.09,2.422 -2.34,2.422 -5.56,-5.75 -13.81,-5.75 -16.6,-5.75 v -2.7816 c 1.71,0 7.18,0 12.04,2.3281 V 53.1719 c 0,-3.3125 -0.29,-4.3906 -8.63,-4.3906 h -2.86 V 46 c 3.22,0.2656 11.2,0.2656 14.89,0.2656 3.67,0 11.75,0 14.99,-0.2656 v 2.7813 h -2.88 c -8.34,0 -8.61,1.0781 -8.61,4.3906 v 50.1721"
         style="fill:#747b86;fill-opacity:1;fill-rule:nonzero;stroke:none"
         id="path142" />
      <path
         d="m 2617.33,47.4375 c 0,-2.9687 0,-10.3281 -6.64,-16.6875 -0.53,-0.5469 -0.53,-0.625 -0.53,-0.9844 0,-0.6406 0.62,-1.0781 1.15,-1.0781 1,0 8.27,7 8.27,17.4844 0,5.5781 -1.99,9.5156 -5.85,9.5156 -3.04,0 -4.84,-2.3281 -4.84,-4.8437 0,-2.5157 1.8,-4.8438 4.84,-4.8438 1.36,0 2.71,0.4531 3.6,1.4375"
         style="fill:#747b86;fill-opacity:1;fill-rule:nonzero;stroke:none"
         id="path144" />
      <path
         d="m 2659.59,50.8438 c 0,2.6093 -2.07,4.8437 -4.86,4.8437 -2.78,0 -4.84,-2.2344 -4.84,-4.8437 0,-2.5938 2.06,-4.8438 4.84,-4.8438 2.79,0 4.86,2.25 4.86,4.8438"
         style="fill:#747b86;fill-opacity:1;fill-rule:nonzero;stroke:none"
         id="path146" />
      <path
         d="m 2700.59,50.8438 c 0,2.6093 -2.07,4.8437 -4.86,4.8437 -2.78,0 -4.84,-2.2344 -4.84,-4.8437 0,-2.5938 2.06,-4.8438 4.84,-4.8438 2.79,0 4.86,2.25 4.86,4.8438"
         style="fill:#747b86;fill-opacity:1;fill-rule:nonzero;stroke:none"
         id="path148" />
      <path
         d="m 2740.59,50.8438 c 0,2.6093 -2.07,4.8437 -4.86,4.8437 -2.78,0 -4.84,-2.2344 -4.84,-4.8437 0,-2.5938 2.06,-4.8438 4.84,-4.8438 2.79,0 4.86,2.25 4.86,4.8438"
         style="fill:#747b86;fill-opacity:1;fill-rule:nonzero;stroke:none"
         id="path150" />
      <path
         d="m 2780.33,47.4375 c 0,-2.9687 0,-10.3281 -6.64,-16.6875 -0.53,-0.5469 -0.53,-0.625 -0.53,-0.9844 0,-0.6406 0.62,-1.0781 1.15,-1.0781 1,0 8.27,7 8.27,17.4844 0,5.5781 -1.99,9.5156 -5.85,9.5156 -3.04,0 -4.84,-2.3281 -4.84,-4.8437 0,-2.5157 1.8,-4.8438 4.84,-4.8438 1.36,0 2.71,0.4531 3.6,1.4375"
         style="fill:#747b86;fill-opacity:1;fill-rule:nonzero;stroke:none"
         id="path152" />
      <path
         d="m 2821.95,60.0938 c 1,4.2031 2.71,10.7656 2.78,11.4843 0.19,0.5313 2.43,4.8438 5.66,7.9844 2.61,2.4219 6.02,3.8594 9.52,3.8594 4.84,0 4.84,-4.7656 4.84,-6.2813 0,-5.4843 -4.22,-16.4218 -5.2,-19.2031 -1.08,-2.7812 -1.44,-3.6875 -1.44,-5.3906 0,-4.8438 3.67,-7.5313 7.72,-7.5313 8.61,0 12.11,12.8282 12.11,13.8125 0,0.4532 -0.27,1.0782 -1.16,1.0782 -1,0 -1.08,-0.4532 -1.44,-1.6094 -2.25,-7.625 -6.01,-11.0469 -9.25,-11.0469 -0.62,0 -2.23,0 -2.23,2.875 0,2.25 0.89,4.5781 1.61,6.5469 1.8,4.5781 5.37,14.0937 5.37,19.125 0,7.9844 -5.92,9.8594 -10.67,9.8594 -8.34,0 -12.73,-5.9219 -14.17,-7.7969 -0.55,4.8437 -4.22,7.7969 -8.7,7.7969 -3.77,0 -5.66,-2.7813 -6.91,-5.2032 -1.53,-3.1406 -2.78,-8.25 -2.78,-8.6093 0,-0.8125 0.62,-1.0782 1.25,-1.0782 0.98,0 1.17,0.4532 1.61,2.25 1.7,7.0782 3.59,10.4063 6.64,10.4063 2.7,0 2.7,-2.875 2.7,-4.2188 0,-1.8906 -0.72,-4.6718 -1.26,-7 -0.63,-2.3281 -1.52,-6.1875 -1.88,-7.2656 l -3.59,-14.7187 c -0.63,-2.1563 -0.63,-2.3282 -0.63,-2.6094 0,-1.1563 0.8,-2.5938 2.78,-2.5938 1.25,0 2.6,0.8125 3.22,1.875 0.28,0.5469 1,3.4219 1.44,5.2032 l 2.06,8"
         style="fill:#747b86;fill-opacity:1;fill-rule:nonzero;stroke:none"
         id="path154" />
    </g>
  </g>
</svg>
