<?xml version="1.0" encoding="UTF-8" standalone="no"?>
<!-- Created with Inkscape (http://www.inkscape.org/) -->

<svg
   version="1.1"
   id="svg2"
   width="261.88"
   height="105.46667"
   viewBox="0 0 261.88 105.46667"
   xmlns="http://www.w3.org/2000/svg"
   xmlns:svg="http://www.w3.org/2000/svg">
  <defs
     id="defs6" />
  <g
     id="g8"
     transform="matrix(1.3333333,0,0,-1.3333333,0,105.46667)">
    <g
       id="g10"
       transform="scale(0.1)">
      <path
         d="m 1314.17,658.941 c 0,70.45 -146.37,127.559 -326.94,127.559 -180.566,0 -326.941,-57.109 -326.941,-127.559 0,-70.453 146.375,-127.562 326.941,-127.562 180.57,0 326.94,57.109 326.94,127.562 z"
         style="fill:#c9cdd3;fill-opacity:1;fill-rule:nonzero;stroke:#747b86;stroke-width:8.9664;stroke-linecap:butt;stroke-linejoin:miter;stroke-miterlimit:10;stroke-dasharray:none;stroke-opacity:1"
         id="path12" />
      <path
         d="m 847.781,673.656 -12.765,3.094 c -6.172,1.5 -10.063,6.875 -10.063,12.656 0,6.969 5.391,13.063 13.156,13.063 16.641,0 18.829,-16.344 19.438,-20.828 0.094,-0.61 0.094,-1.203 1.187,-1.203 1.297,0 1.297,0.5 1.297,2.39 v 20.031 c 0,1.688 0,2.391 -1.093,2.391 -0.704,0 -0.797,-0.094 -1.5,-1.297 l -3.485,-5.672 c -2.984,2.891 -7.078,6.969 -15.937,6.969 -11.063,0 -19.438,-8.766 -19.438,-19.328 0,-8.266 5.281,-15.547 13.063,-18.234 1.093,-0.407 6.172,-1.594 13.14,-3.297 2.703,-0.688 5.688,-1.391 8.469,-5.078 2.094,-2.594 3.094,-5.875 3.094,-9.172 0,-7.063 -4.985,-14.25 -13.344,-14.25 -2.891,0 -10.469,0.5 -15.75,5.39 -5.781,5.375 -6.078,11.75 -6.172,15.344 -0.109,1 -0.906,1 -1.203,1 -1.297,0 -1.297,-0.703 -1.297,-2.5 v -19.922 c 0,-1.703 0,-2.39 1.094,-2.39 0.703,0 0.797,0.187 1.5,1.296 0,0.094 0.297,0.391 3.594,5.672 3.078,-3.39 9.453,-6.968 18.328,-6.968 11.656,0 19.625,9.765 19.625,20.718 0,9.969 -6.578,18.141 -14.938,20.125"
         style="fill:#1f2937;fill-opacity:1;fill-rule:nonzero;stroke:none"
         id="path14" />
      <path
         d="m 879.156,660.109 c 0.61,14.844 8.969,17.344 12.36,17.344 10.265,0 11.265,-13.453 11.265,-17.344 z m -0.093,-2.093 h 27.796 c 2.188,0 2.5,0 2.5,2.093 0,9.86 -5.39,19.532 -17.843,19.532 -11.563,0 -20.719,-10.266 -20.719,-22.719 0,-13.359 10.453,-23.016 21.922,-23.016 12.156,0 16.64,11.063 16.64,12.953 0,1 -0.796,1.188 -1.296,1.188 -0.907,0 -1.094,-0.594 -1.297,-1.391 -3.485,-10.265 -12.453,-10.265 -13.453,-10.265 -4.985,0 -8.969,3 -11.266,6.687 -2.984,4.781 -2.984,11.36 -2.984,14.938"
         style="fill:#1f2937;fill-opacity:1;fill-rule:nonzero;stroke:none"
         id="path16" />
      <path
         d="m 953.453,668.188 c 0.891,2.281 2.594,6.578 9.172,6.671 v 3.094 c -2.297,-0.203 -5.187,-0.297 -7.484,-0.297 -2.391,0 -6.969,0.188 -8.657,0.297 v -3.094 c 3.688,-0.093 4.782,-2.39 4.782,-4.281 0,-0.906 -0.203,-1.297 -0.61,-2.39 L 940.5,642.766 929.344,670.578 c -0.61,1.297 -0.61,1.485 -0.61,1.688 0,2.593 3.891,2.593 5.688,2.593 v 3.094 c -2.984,-0.109 -8.578,-0.297 -10.859,-0.297 -2.688,0 -6.688,0.094 -9.672,0.297 v -3.094 c 6.281,0 6.672,-0.593 7.968,-3.687 l 14.36,-35.375 c 0.594,-1.391 0.797,-1.891 2.094,-1.891 1.296,0 1.687,0.891 2.093,1.891 l 13.047,32.391"
         style="fill:#1f2937;fill-opacity:1;fill-rule:nonzero;stroke:none"
         id="path18" />
      <path
         d="m 973.156,660.109 c 0.61,14.844 8.969,17.344 12.36,17.344 10.265,0 11.265,-13.453 11.265,-17.344 z m -0.093,-2.093 h 27.797 c 2.19,0 2.5,0 2.5,2.093 0,9.86 -5.391,19.532 -17.844,19.532 -11.563,0 -20.719,-10.266 -20.719,-22.719 0,-13.359 10.453,-23.016 21.922,-23.016 12.156,0 16.641,11.063 16.641,12.953 0,1 -0.8,1.188 -1.3,1.188 -0.9,0 -1.09,-0.594 -1.29,-1.391 -3.489,-10.265 -12.457,-10.265 -13.457,-10.265 -4.985,0 -8.969,3 -11.266,6.687 -2.984,4.781 -2.984,11.36 -2.984,14.938"
         style="fill:#1f2937;fill-opacity:1;fill-rule:nonzero;stroke:none"
         id="path20" />
      <path
         d="m 1022.64,668.078 v 10.969 l -13.84,-1.094 v -3.094 c 6.97,0 7.76,-0.703 7.76,-5.578 v -26.703 c 0,-4.484 -1.09,-4.484 -7.76,-4.484 V 635 c 3.87,0.094 8.56,0.297 11.36,0.297 3.98,0 8.65,0 12.65,-0.297 v 3.094 h -2.09 c -7.38,0 -7.58,1.094 -7.58,4.672 v 15.359 c 0,9.859 4.19,18.734 11.75,18.734 0.7,0 0.91,0 1.11,-0.109 -0.31,-0.094 -2.3,-1.297 -2.3,-3.891 0,-2.781 2.1,-4.281 4.28,-4.281 1.8,0 4.29,1.203 4.29,4.391 0,3.187 -3.08,6.078 -7.38,6.078 -7.26,0 -10.86,-6.672 -12.25,-10.969"
         style="fill:#1f2937;fill-opacity:1;fill-rule:nonzero;stroke:none"
         id="path22" />
      <path
         d="m 1062.64,679.047 -13.95,-1.094 v -3.094 c 6.47,0 7.37,-0.593 7.37,-5.484 v -26.797 c 0,-4.484 -1.09,-4.484 -7.78,-4.484 V 635 c 3.2,0.094 8.58,0.297 10.97,0.297 3.48,0 6.97,-0.203 10.36,-0.297 v 3.094 c -6.58,0 -6.97,0.5 -6.97,4.375 z m 0.39,17.328 c 0,3.203 -2.48,5.281 -5.28,5.281 -3.08,0 -5.28,-2.687 -5.28,-5.281 0,-2.687 2.2,-5.281 5.28,-5.281 2.8,0 5.28,2.094 5.28,5.281"
         style="fill:#1f2937;fill-opacity:1;fill-rule:nonzero;stroke:none"
         id="path24" />
      <path
         d="m 1090.23,674.859 h 14.25 v 3.094 h -14.25 v 18.328 h -2.48 c -0.11,-8.172 -3.09,-18.828 -12.86,-19.234 v -2.188 h 8.47 v -27.5 c 0,-12.265 9.27,-13.453 12.86,-13.453 7.08,0 9.86,7.078 9.86,13.453 v 5.672 h -2.49 v -5.468 c 0,-7.375 -2.98,-11.172 -6.67,-11.172 -6.69,0 -6.69,9.078 -6.69,10.765 v 27.703"
         style="fill:#1f2937;fill-opacity:1;fill-rule:nonzero;stroke:none"
         id="path26" />
      <path
         d="m 1150.36,668.484 c 2.58,6.282 7.67,6.375 9.27,6.375 v 3.094 c -2.3,-0.203 -5.19,-0.297 -7.49,-0.297 -1.78,0 -6.47,0.188 -8.66,0.297 v -3.094 c 3.08,-0.093 4.68,-1.796 4.68,-4.281 0,-1 -0.1,-1.203 -0.6,-2.39 l -10.06,-24.516 -11.06,26.797 c -0.39,1 -0.6,1.406 -0.6,1.797 0,2.593 3.69,2.593 5.58,2.593 v 3.094 c -2.59,-0.109 -9.17,-0.297 -10.86,-0.297 -2.68,0 -6.68,0.094 -9.67,0.297 v -3.094 c 4.78,0 6.67,0 8.08,-3.484 L 1133.91,635 c -0.5,-1.297 -1.89,-4.578 -2.49,-5.875 -2.19,-5.484 -4.98,-12.359 -11.36,-12.359 -0.5,0 -2.79,0 -4.68,1.797 3.09,0.39 3.89,2.593 3.89,4.187 0,2.578 -1.89,4.172 -4.19,4.172 -2,0 -4.19,-1.281 -4.19,-4.281 0,-4.485 4.19,-8.063 9.17,-8.063 6.28,0 10.36,5.672 12.75,11.36 l 17.55,42.546"
         style="fill:#1f2937;fill-opacity:1;fill-rule:nonzero;stroke:none"
         id="path28" />
      <path
         d="m 678.309,132.039 c 0,70.453 -150.84,127.563 -336.918,127.563 C 155.313,259.602 4.47266,202.492 4.47266,132.039 4.47266,61.5898 155.313,4.48047 341.391,4.48047 c 186.078,0 336.918,57.10933 336.918,127.55853 z"
         style="fill:#c9cdd3;fill-opacity:1;fill-rule:nonzero;stroke:#747b86;stroke-width:8.9664;stroke-linecap:butt;stroke-linejoin:miter;stroke-miterlimit:10;stroke-dasharray:none;stroke-opacity:1"
         id="path30" />
      <path
         d="m 221.078,167.281 c 0,3.594 0.203,4.688 7.875,4.688 h 2.391 v 3.094 c -3.485,-0.297 -10.86,-0.297 -14.641,-0.297 -3.797,0 -11.265,0 -14.75,0.297 v -3.094 h 2.391 c 7.672,0 7.875,-1.094 7.875,-4.688 v -23.312 h -29.797 v 23.312 c 0,3.594 0.203,4.688 7.875,4.688 h 2.391 v 3.094 c -3.485,-0.297 -10.86,-0.297 -14.657,-0.297 -3.781,0 -11.25,0 -14.75,0.297 v -3.094 h 2.407 c 7.671,0 7.859,-1.094 7.859,-4.688 v -52.515 c 0,-3.578 -0.188,-4.672 -7.859,-4.672 h -2.407 V 107 c 3.5,0.297 10.875,0.297 14.657,0.297 3.781,0 11.265,0 14.75,-0.297 v 3.094 h -2.391 c -7.672,0 -7.875,1.094 -7.875,4.672 v 26.109 h 29.797 v -26.109 c 0,-3.578 -0.203,-4.672 -7.875,-4.672 h -2.391 V 107 c 3.485,0.297 10.86,0.297 14.641,0.297 3.797,0 11.265,0 14.75,-0.297 v 3.094 h -2.391 c -7.672,0 -7.875,1.094 -7.875,4.672 v 52.515"
         style="fill:#1f2937;fill-opacity:1;fill-rule:nonzero;stroke:none"
         id="path32" />
      <path
         d="m 281.938,128.328 c 0,12.75 -9.969,23.313 -22.032,23.313 -12.453,0 -22.109,-10.86 -22.109,-23.313 0,-12.859 10.359,-22.422 22.016,-22.422 12.062,0 22.125,9.766 22.125,22.422 z m -22.032,-19.937 c -4.281,0 -8.656,2.093 -11.359,6.687 -2.484,4.375 -2.484,10.453 -2.484,14.047 0,3.891 0,9.266 2.39,13.641 2.688,4.593 7.375,6.687 11.36,6.687 4.39,0 8.671,-2.203 11.265,-6.484 2.578,-4.281 2.578,-10.063 2.578,-13.844 0,-3.594 0,-8.969 -2.187,-13.359 -2.188,-4.485 -6.578,-7.375 -11.563,-7.375"
         style="fill:#1f2937;fill-opacity:1;fill-rule:nonzero;stroke:none"
         id="path34" />
      <path
         d="m 304.734,126.328 c 2.188,-0.39 10.36,-1.984 10.36,-9.172 0,-5.078 -3.485,-9.062 -11.266,-9.062 -8.375,0 -11.953,5.687 -13.844,14.156 -0.296,1.297 -0.406,1.688 -1.406,1.688 -1.297,0 -1.297,-0.688 -1.297,-2.485 v -13.156 c 0,-1.703 0,-2.391 1.11,-2.391 0.484,0 0.593,0.094 2.484,1.985 0.203,0.203 0.203,0.406 2,2.297 4.375,-4.188 8.859,-4.282 10.953,-4.282 11.469,0 16.047,6.672 16.047,13.844 0,5.281 -2.984,8.281 -4.187,9.469 -3.282,3.187 -7.172,3.984 -11.36,4.781 -5.578,1.094 -12.25,2.391 -12.25,8.172 0,3.484 2.578,7.578 11.156,7.578 10.954,0 11.454,-8.969 11.657,-12.062 0.093,-0.891 1,-0.891 1.203,-0.891 1.281,0 1.281,0.5 1.281,2.391 v 10.062 c 0,1.688 0,2.391 -1.094,2.391 -0.5,0 -0.687,0 -1.984,-1.188 -0.297,-0.406 -1.297,-1.297 -1.703,-1.594 -3.781,2.782 -7.86,2.782 -9.36,2.782 -12.156,0 -15.953,-6.672 -15.953,-12.25 0,-3.5 1.594,-6.282 4.297,-8.469 3.188,-2.594 5.969,-3.188 13.156,-4.594"
         style="fill:#1f2937;fill-opacity:1;fill-rule:nonzero;stroke:none"
         id="path36" />
      <path
         d="m 341.141,144.469 v 6.578 l -14.344,-1.094 v -3.094 c 7.062,0 7.766,-0.593 7.766,-4.984 V 95.2344 c 0,-4.4844 -1.094,-4.4844 -7.766,-4.4844 v -3.0781 c 3.375,0.0937 8.562,0.2969 11.156,0.2969 2.688,0 7.766,-0.2032 11.25,-0.2969 V 90.75 c -6.672,0 -7.765,0 -7.765,4.4844 v 16.7496 0.891 c 0.5,-1.594 4.687,-6.969 12.25,-6.969 11.859,0 22.234,9.766 22.234,22.625 0,12.641 -9.672,22.516 -20.828,22.516 -7.781,0 -11.969,-4.391 -13.953,-6.578 z m 0.297,-26.11 v 22.219 c 2.89,5.078 7.765,7.969 12.859,7.969 7.266,0 13.344,-8.766 13.344,-20.016 0,-12.062 -6.969,-20.437 -14.344,-20.437 -3.984,0 -7.766,2 -10.469,6.078 -1.39,2.094 -1.39,2.187 -1.39,4.187"
         style="fill:#1f2937;fill-opacity:1;fill-rule:nonzero;stroke:none"
         id="path38" />
      <path
         d="m 396.641,151.047 -13.953,-1.094 v -3.094 c 6.468,0 7.375,-0.593 7.375,-5.484 v -26.797 c 0,-4.484 -1.094,-4.484 -7.782,-4.484 V 107 c 3.203,0.094 8.578,0.297 10.969,0.297 3.484,0 6.969,-0.203 10.359,-0.297 v 3.094 c -6.578,0 -6.968,0.5 -6.968,4.375 z m 0.39,17.328 c 0,3.203 -2.484,5.281 -5.281,5.281 -3.078,0 -5.281,-2.687 -5.281,-5.281 0,-2.687 2.203,-5.281 5.281,-5.281 2.797,0 5.281,2.094 5.281,5.281"
         style="fill:#1f2937;fill-opacity:1;fill-rule:nonzero;stroke:none"
         id="path40" />
      <path
         d="m 424.234,146.859 h 14.25 v 3.094 h -14.25 v 18.328 h -2.484 c -0.109,-8.172 -3.094,-18.828 -12.859,-19.234 v -2.188 h 8.468 v -27.5 c 0,-12.265 9.266,-13.453 12.86,-13.453 7.078,0 9.859,7.078 9.859,13.453 v 5.672 h -2.484 v -5.468 c 0,-7.375 -2.985,-11.172 -6.672,-11.172 -6.688,0 -6.688,9.078 -6.688,10.765 v 27.703"
         style="fill:#1f2937;fill-opacity:1;fill-rule:nonzero;stroke:none"
         id="path42" />
      <path
         d="m 478.188,114.578 c 0.39,-3.984 3.078,-8.172 7.765,-8.172 2.094,0 8.172,1.391 8.172,9.469 v 5.578 h -2.484 v -5.578 c 0,-5.781 -2.5,-6.391 -3.594,-6.391 -3.281,0 -3.688,4.485 -3.688,4.985 v 19.937 c 0,4.188 0,8.063 -3.593,11.75 -3.875,3.891 -8.86,5.485 -13.641,5.485 -8.172,0 -15.047,-4.688 -15.047,-11.266 0,-2.984 1.985,-4.672 4.578,-4.672 2.797,0 4.594,1.985 4.594,4.578 0,1.203 -0.5,4.485 -5.094,4.578 2.688,3.5 7.578,4.594 10.766,4.594 4.891,0 10.562,-3.89 10.562,-12.765 v -3.672 c -5.078,-0.313 -12.062,-0.61 -18.328,-3.594 -7.484,-3.391 -9.968,-8.578 -9.968,-12.953 0,-8.078 9.656,-10.563 15.937,-10.563 6.578,0 11.172,3.985 13.063,8.672 z m -0.704,16.344 v -9.969 c 0,-9.469 -7.171,-12.859 -11.656,-12.859 -4.89,0 -8.969,3.484 -8.969,8.469 0,5.484 4.188,13.75 20.625,14.359"
         style="fill:#1f2937;fill-opacity:1;fill-rule:nonzero;stroke:none"
         id="path44" />
      <path
         d="m 512.641,176.156 -14.36,-1.093 v -3.094 c 6.985,0 7.782,-0.703 7.782,-5.578 v -51.813 c 0,-4.484 -1.094,-4.484 -7.782,-4.484 V 107 c 3.297,0.094 8.578,0.297 11.063,0.297 2.5,0 7.375,-0.203 11.062,-0.297 v 3.094 c -6.672,0 -7.765,0 -7.765,4.484 v 61.578"
         style="fill:#1f2937;fill-opacity:1;fill-rule:nonzero;stroke:none"
         id="path46" />
      <path
         d="m 1959.63,132.039 c 0,70.453 -148.12,127.563 -330.85,127.563 -182.73,0 -330.85,-57.11 -330.85,-127.563 0,-70.4492 148.12,-127.55853 330.85,-127.55853 182.73,0 330.85,57.10933 330.85,127.55853 z"
         style="fill:#c9cdd3;fill-opacity:1;fill-rule:nonzero;stroke:#747b86;stroke-width:8.9664;stroke-linecap:butt;stroke-linejoin:miter;stroke-miterlimit:10;stroke-dasharray:none;stroke-opacity:1"
         id="path48" />
      <path
         d="m 1486.78,135.656 -12.76,3.094 c -6.18,1.5 -10.07,6.875 -10.07,12.656 0,6.969 5.39,13.063 13.16,13.063 16.64,0 18.83,-16.344 19.44,-20.828 0.09,-0.61 0.09,-1.203 1.18,-1.203 1.3,0 1.3,0.5 1.3,2.39 v 20.031 c 0,1.688 0,2.391 -1.09,2.391 -0.71,0 -0.8,-0.094 -1.5,-1.297 l -3.49,-5.672 c -2.98,2.891 -7.07,6.969 -15.93,6.969 -11.07,0 -19.44,-8.766 -19.44,-19.328 0,-8.266 5.28,-15.547 13.06,-18.234 1.09,-0.407 6.17,-1.594 13.14,-3.297 2.7,-0.688 5.69,-1.391 8.47,-5.078 2.09,-2.594 3.09,-5.875 3.09,-9.172 0,-7.063 -4.98,-14.2504 -13.34,-14.2504 -2.89,0 -10.47,0.5 -15.75,5.3904 -5.78,5.375 -6.08,11.75 -6.17,15.344 -0.11,1 -0.91,1 -1.2,1 -1.3,0 -1.3,-0.703 -1.3,-2.5 V 97.2031 c 0,-1.7031 0,-2.3906 1.09,-2.3906 0.71,0 0.8,0.1875 1.5,1.2969 0,0.0937 0.3,0.3906 3.6,5.6716 3.07,-3.3904 9.45,-6.9685 18.32,-6.9685 11.66,0 19.63,9.7655 19.63,20.7185 0,9.969 -6.58,18.141 -14.94,20.125"
         style="fill:#1f2937;fill-opacity:1;fill-rule:nonzero;stroke:none"
         id="path50" />
      <path
         d="M 1545.97,104.875 V 95.9063 L 1560.31,97 v 3.094 c -6.98,0 -7.78,0.687 -7.78,5.578 v 35.375 l -14.64,-1.094 v -3.094 c 6.97,0 7.77,-0.703 7.77,-5.578 v -17.734 c 0,-8.672 -4.78,-15.4532 -12.05,-15.4532 -8.38,0 -8.77,4.6872 -8.77,9.8752 v 33.078 l -14.65,-1.094 v -3.094 c 7.78,0 7.78,-0.296 7.78,-9.171 V 112.75 c 0,-7.781 0,-16.8437 15.14,-16.8437 5.58,0 9.97,2.7812 12.86,8.9687"
         style="fill:#1f2937;fill-opacity:1;fill-rule:nonzero;stroke:none"
         id="path52" />
      <path
         d="m 1578.64,130.078 v 10.969 l -13.84,-1.094 v -3.094 c 6.97,0 7.76,-0.703 7.76,-5.578 v -26.703 c 0,-4.484 -1.09,-4.484 -7.76,-4.484 V 97 c 3.87,0.0938 8.56,0.2969 11.36,0.2969 3.98,0 8.65,0 12.65,-0.2969 v 3.094 h -2.09 c -7.38,0 -7.58,1.094 -7.58,4.672 v 15.359 c 0,9.859 4.19,18.734 11.75,18.734 0.7,0 0.91,0 1.11,-0.109 -0.31,-0.094 -2.3,-1.297 -2.3,-3.891 0,-2.781 2.1,-4.281 4.28,-4.281 1.8,0 4.29,1.203 4.29,4.391 0,3.187 -3.08,6.078 -7.38,6.078 -7.26,0 -10.86,-6.672 -12.25,-10.969"
         style="fill:#1f2937;fill-opacity:1;fill-rule:nonzero;stroke:none"
         id="path54" />
      <path
         d="m 1642.45,130.188 c 0.89,2.281 2.6,6.578 9.18,6.671 v 3.094 c -2.3,-0.203 -5.19,-0.297 -7.49,-0.297 -2.39,0 -6.97,0.188 -8.66,0.297 v -3.094 c 3.69,-0.093 4.79,-2.39 4.79,-4.281 0,-0.906 -0.21,-1.297 -0.61,-2.39 l -10.16,-25.422 -11.16,27.812 c -0.61,1.297 -0.61,1.485 -0.61,1.688 0,2.593 3.9,2.593 5.69,2.593 v 3.094 c -2.98,-0.109 -8.58,-0.297 -10.86,-0.297 -2.68,0 -6.68,0.094 -9.67,0.297 v -3.094 c 6.28,0 6.67,-0.593 7.97,-3.687 l 14.36,-35.3751 c 0.59,-1.3906 0.8,-1.8906 2.09,-1.8906 1.3,0 1.69,0.8906 2.1,1.8906 l 13.04,32.3911"
         style="fill:#1f2937;fill-opacity:1;fill-rule:nonzero;stroke:none"
         id="path56" />
      <path
         d="m 1671.64,141.047 -13.95,-1.094 v -3.094 c 6.47,0 7.37,-0.593 7.37,-5.484 v -26.797 c 0,-4.484 -1.09,-4.484 -7.78,-4.484 V 97 c 3.2,0.0938 8.58,0.2969 10.97,0.2969 3.48,0 6.97,-0.2031 10.36,-0.2969 v 3.094 c -6.58,0 -6.97,0.5 -6.97,4.375 z m 0.39,17.328 c 0,3.203 -2.48,5.281 -5.28,5.281 -3.08,0 -5.28,-2.687 -5.28,-5.281 0,-2.687 2.2,-5.281 5.28,-5.281 2.8,0 5.28,2.094 5.28,5.281"
         style="fill:#1f2937;fill-opacity:1;fill-rule:nonzero;stroke:none"
         id="path58" />
      <path
         d="m 1723.45,130.188 c 0.89,2.281 2.6,6.578 9.18,6.671 v 3.094 c -2.3,-0.203 -5.19,-0.297 -7.49,-0.297 -2.39,0 -6.97,0.188 -8.66,0.297 v -3.094 c 3.69,-0.093 4.79,-2.39 4.79,-4.281 0,-0.906 -0.21,-1.297 -0.61,-2.39 l -10.16,-25.422 -11.16,27.812 c -0.61,1.297 -0.61,1.485 -0.61,1.688 0,2.593 3.9,2.593 5.69,2.593 v 3.094 c -2.98,-0.109 -8.58,-0.297 -10.86,-0.297 -2.68,0 -6.68,0.094 -9.67,0.297 v -3.094 c 6.28,0 6.67,-0.593 7.97,-3.687 l 14.36,-35.3751 c 0.59,-1.3906 0.8,-1.8906 2.09,-1.8906 1.3,0 1.69,0.8906 2.1,1.8906 l 13.04,32.3911"
         style="fill:#1f2937;fill-opacity:1;fill-rule:nonzero;stroke:none"
         id="path60" />
      <path
         d="m 1762.19,104.578 c 0.39,-3.984 3.08,-8.1717 7.76,-8.1717 2.1,0 8.18,1.3906 8.18,9.4687 v 5.578 h -2.49 v -5.578 c 0,-5.781 -2.5,-6.3906 -3.59,-6.3906 -3.28,0 -3.69,4.4846 -3.69,4.9846 v 19.937 c 0,4.188 0,8.063 -3.59,11.75 -3.88,3.891 -8.86,5.485 -13.64,5.485 -8.18,0 -15.05,-4.688 -15.05,-11.266 0,-2.984 1.98,-4.672 4.58,-4.672 2.79,0 4.59,1.985 4.59,4.578 0,1.203 -0.5,4.485 -5.09,4.578 2.68,3.5 7.57,4.594 10.76,4.594 4.89,0 10.56,-3.89 10.56,-12.765 v -3.672 c -5.07,-0.313 -12.06,-0.61 -18.32,-3.594 -7.49,-3.391 -9.97,-8.578 -9.97,-12.953 0,-8.0784 9.65,-10.5627 15.94,-10.5627 6.57,0 11.17,3.9843 13.06,8.6717 z m -0.71,16.344 v -9.969 c 0,-9.469 -7.17,-12.8592 -11.65,-12.8592 -4.89,0 -8.97,3.4842 -8.97,8.4692 0,5.484 4.19,13.75 20.62,14.359"
         style="fill:#1f2937;fill-opacity:1;fill-rule:nonzero;stroke:none"
         id="path62" />
      <path
         d="m 1795.64,166.156 -14.36,-1.093 v -3.094 c 6.99,0 7.78,-0.703 7.78,-5.578 v -51.813 c 0,-4.484 -1.09,-4.484 -7.78,-4.484 V 97 c 3.3,0.0938 8.58,0.2969 11.06,0.2969 2.5,0 7.38,-0.2031 11.07,-0.2969 v 3.094 c -6.68,0 -7.77,0 -7.77,4.484 v 61.578"
         style="fill:#1f2937;fill-opacity:1;fill-rule:nonzero;stroke:none"
         id="path64" />
      <path
         d="M 841.797,540.293 523.637,280.723"
         style="fill:none;stroke:#1f2937;stroke-width:7.9701;stroke-linecap:butt;stroke-linejoin:miter;stroke-miterlimit:10;stroke-dasharray:none;stroke-opacity:1"
         id="path66" />
      <path
         d="m 496.426,258.523 50.152,16.801 -24.484,4.141 0.859,24.816 z"
         style="fill:#1f2937;fill-opacity:1;fill-rule:nonzero;stroke:#1f2937;stroke-width:7.96968;stroke-linecap:butt;stroke-linejoin:miter;stroke-miterlimit:10;stroke-dasharray:none;stroke-opacity:1"
         id="path68" />
      <path
         d="M 1131.88,540.141 1447.9,280.59"
         style="fill:none;stroke:#1f2937;stroke-width:7.9701;stroke-linecap:butt;stroke-linejoin:miter;stroke-miterlimit:10;stroke-dasharray:none;stroke-opacity:1"
         id="path70" />
      <path
         d="m 1475.04,258.301 -26.38,45.844 0.78,-24.821 -24.5,-4.058 z"
         style="fill:#1f2937;fill-opacity:1;fill-rule:nonzero;stroke:#1f2937;stroke-width:7.96968;stroke-linecap:butt;stroke-linejoin:miter;stroke-miterlimit:10;stroke-dasharray:none;stroke-opacity:1"
         id="path72" />
      <path
         d="M 682.793,132.039 H 1246.98"
         style="fill:none;stroke:#1f2937;stroke-width:7.9701;stroke-linecap:butt;stroke-linejoin:miter;stroke-miterlimit:10;stroke-dasharray:none;stroke-opacity:1"
         id="path74" />
      <path
         d="m 1282.09,132.039 -49.48,18.688 16.36,-18.688 -16.36,-18.687 z"
         style="fill:#1f2937;fill-opacity:1;fill-rule:nonzero;stroke:#1f2937;stroke-width:7.9701;stroke-linecap:butt;stroke-linejoin:miter;stroke-miterlimit:10;stroke-dasharray:none;stroke-opacity:1"
         id="path76" />
    </g>
  </g>
</svg>
