<?xml version="1.0" encoding="UTF-8" standalone="no"?>
<!-- Created with Inkscape (http://www.inkscape.org/) -->

<svg
   version="1.1"
   id="svg2"
   width="184.8"
   height="217.34666"
   viewBox="0 0 184.8 217.34666"
   xmlns="http://www.w3.org/2000/svg"
   xmlns:svg="http://www.w3.org/2000/svg">
  <defs
     id="defs6" />
  <g
     id="g8"
     transform="matrix(1.3333333,0,0,-1.3333333,0,217.34667)">
    <g
       id="g10"
       transform="scale(0.1)">
      <path
         d="M 987.82,947.668 H 539.891 c -27.512,0 -49.813,-22.301 -49.813,-49.813 V 449.926 c 0,-27.512 22.301,-49.813 49.813,-49.813 H 987.82 c 27.51,0 49.81,22.301 49.81,49.813 v 447.929 c 0,27.512 -22.3,49.813 -49.81,49.813 z"
         style="fill:none;stroke:#98a2b3;stroke-width:7.9701;stroke-linecap:butt;stroke-linejoin:miter;stroke-miterlimit:10;stroke-dasharray:29.8883, 29.8883;stroke-dashoffset:0;stroke-opacity:1"
         id="path12" />
      <path
         d="M 1332.21,1626.17 H 53.7969 c -27.5117,0 -49.81643,-22.3 -49.81643,-49.81 V 192.176 c 0,-27.512 22.30473,-49.817 49.81643,-49.817 H 1332.21 c 27.52,0 49.82,22.305 49.82,49.817 V 1576.36 c 0,27.51 -22.3,49.81 -49.82,49.81 z"
         style="fill:none;stroke:#98a2b3;stroke-width:7.9701;stroke-linecap:butt;stroke-linejoin:miter;stroke-miterlimit:10;stroke-dasharray:29.8883, 29.8883;stroke-dashoffset:0;stroke-opacity:1"
         id="path14" />
      <path
         d="m 291.898,1075.23 h 255.121 v 255.121 H 291.898 Z"
         style="fill:#ffffff;fill-opacity:1;fill-rule:nonzero;stroke:#1f2937;stroke-width:7.9701;stroke-linecap:butt;stroke-linejoin:miter;stroke-miterlimit:10;stroke-dasharray:none;stroke-opacity:1"
         id="path16" />
      <path
         d="m 403.281,1226.09 c 0.594,2.6 2.891,11.77 9.86,11.77 0.5,0 2.89,0 4.984,-1.3 -2.781,-0.5 -4.781,-3 -4.781,-5.39 0,-1.59 1.094,-3.48 3.797,-3.48 2.187,0 5.375,1.79 5.375,5.78 0,5.19 -5.875,6.58 -9.266,6.58 -5.781,0 -9.266,-5.28 -10.469,-7.58 -2.484,6.58 -7.875,7.58 -10.765,7.58 -10.36,0 -16.032,-12.86 -16.032,-15.35 0,-1 0.985,-1 1.188,-1 0.797,0 1.094,0.21 1.297,1.1 3.39,10.56 9.969,13.06 13.359,13.06 1.891,0 5.375,-0.91 5.375,-6.69 0,-3.08 -1.687,-9.76 -5.375,-23.72 -1.594,-6.17 -5.094,-10.36 -9.469,-10.36 -0.593,0 -2.89,0 -4.984,1.3 2.484,0.5 4.688,2.59 4.688,5.38 0,2.7 -2.204,3.5 -3.688,3.5 -3,0 -5.484,-2.6 -5.484,-5.79 0,-4.59 4.984,-6.57 9.359,-6.57 6.578,0 10.172,6.97 10.469,7.57 1.203,-3.68 4.781,-7.57 10.765,-7.57 10.266,0 15.938,12.86 15.938,15.34 0,1 -0.891,1 -1.188,1 -0.906,0 -1.093,-0.41 -1.296,-1.09 -3.297,-10.68 -10.063,-13.07 -13.25,-13.07 -3.891,0 -5.485,3.19 -5.485,6.58 0,2.19 0.594,4.39 1.688,8.77 l 3.39,13.65"
         style="fill:#1f2937;fill-opacity:1;fill-rule:nonzero;stroke:none"
         id="path18" />
      <path
         d="m 457.609,1224.58 c 0,1.19 -0.906,2.65 -2.781,2.65 -2.031,0 -3.906,-1.95 -3.906,-3.82 0,-1.13 0.828,-2.66 2.781,-2.66 1.891,0 3.906,1.81 3.906,3.83 z m -14.781,-47 c -1.187,-4.81 -4.875,-8.86 -9,-8.86 -0.906,0 -1.734,0.14 -2.5,0.42 1.813,0.84 2.36,2.52 2.36,3.56 0,1.68 -1.313,2.58 -2.719,2.58 -2.156,0 -3.969,-1.87 -3.969,-4.11 0,-2.65 2.719,-4.39 6.906,-4.39 4.188,0 12.344,2.5 14.5,11.02 l 6.282,24.97 c 0.203,0.76 0.343,1.39 0.343,2.43 0,3.83 -3.281,6.55 -7.453,6.55 -7.75,0 -12.203,-9.69 -12.203,-10.67 0,-0.91 0.969,-0.91 1.172,-0.91 0.844,0 0.906,0.22 1.406,1.27 1.735,4.04 5.36,8.36 9.406,8.36 1.75,0 2.375,-1.19 2.375,-3.41 0,-0.76 -0.14,-1.75 -0.203,-2.09 l -6.703,-26.72"
         style="fill:#1f2937;fill-opacity:1;fill-rule:nonzero;stroke:none"
         id="path20" />
      <path
         d="m 1264.16,1202.79 c 0,86.1 -69.8,155.91 -155.91,155.91 -86.11,0 -155.906,-69.81 -155.906,-155.91 0,-86.11 69.796,-155.91 155.906,-155.91 86.11,0 155.91,69.8 155.91,155.91 z"
         style="fill:#dae9fb;fill-opacity:1;fill-rule:nonzero;stroke:#4477b5;stroke-width:8.9664;stroke-linecap:butt;stroke-linejoin:miter;stroke-miterlimit:10;stroke-dasharray:none;stroke-opacity:1"
         id="path22" />
      <path
         d="m 1093.88,1201.58 c 1.09,-4.08 4.57,-6.67 8.87,-6.67 3.48,0 5.78,2.29 7.38,5.48 1.68,3.58 2.98,9.66 2.98,9.86 0,1 -0.89,1 -1.2,1 -0.99,0 -1.1,-0.41 -1.39,-1.8 -1.39,-5.57 -3.29,-12.36 -7.47,-12.36 -2.1,0 -3.1,1.3 -3.1,4.6 0,2.19 1.21,6.87 2,10.36 l 2.78,10.76 c 0.3,1.49 1.3,5.28 1.71,6.77 0.5,2.3 1.48,6.08 1.48,6.67 0,1.8 -1.39,2.7 -2.89,2.7 -0.5,0 -3.08,-0.11 -3.87,-3.5 -1.91,-7.26 -6.28,-24.7 -7.49,-29.98 -0.09,-0.41 -4.08,-8.38 -11.36,-8.38 -5.17,0 -6.17,4.49 -6.17,8.18 0,5.57 2.78,13.45 5.38,20.32 1.2,2.99 1.7,4.39 1.7,6.29 0,4.48 -3.19,8.17 -8.17,8.17 -9.47,0 -13.16,-14.46 -13.16,-15.35 0,-1 1,-1 1.19,-1 1,0 1.11,0.21 1.61,1.8 2.48,8.67 6.26,12.36 10.06,12.36 0.89,0 2.48,-0.11 2.48,-3.3 0,-2.39 -1.09,-5.28 -1.68,-6.78 -3.69,-9.86 -5.78,-16.03 -5.78,-20.92 0,-9.47 6.87,-11.95 12.25,-11.95 6.57,0 10.17,4.48 11.86,6.67"
         style="fill:#1f2937;fill-opacity:1;fill-rule:nonzero;stroke:none"
         id="path24" />
      <path
         d="m 1146.61,1224.58 c 0,1.19 -0.91,2.65 -2.78,2.65 -2.03,0 -3.91,-1.95 -3.91,-3.82 0,-1.13 0.83,-2.66 2.78,-2.66 1.89,0 3.91,1.81 3.91,3.83 z m -14.78,-47 c -1.19,-4.81 -4.88,-8.86 -9,-8.86 -0.91,0 -1.74,0.14 -2.5,0.42 1.81,0.84 2.36,2.52 2.36,3.56 0,1.68 -1.31,2.58 -2.72,2.58 -2.16,0 -3.97,-1.87 -3.97,-4.11 0,-2.65 2.72,-4.39 6.91,-4.39 4.18,0 12.34,2.5 14.5,11.02 l 6.28,24.97 c 0.2,0.76 0.34,1.39 0.34,2.43 0,3.83 -3.28,6.55 -7.45,6.55 -7.75,0 -12.2,-9.69 -12.2,-10.67 0,-0.91 0.96,-0.91 1.17,-0.91 0.84,0 0.9,0.22 1.4,1.27 1.74,4.04 5.36,8.36 9.41,8.36 1.75,0 2.37,-1.19 2.37,-3.41 0,-0.76 -0.14,-1.75 -0.2,-2.09 l -6.7,-26.72"
         style="fill:#1f2937;fill-opacity:1;fill-rule:nonzero;stroke:none"
         id="path26" />
      <path
         d="m 919.762,673.891 c 0,86.105 -69.801,155.906 -155.907,155.906 -86.105,0 -155.906,-69.801 -155.906,-155.906 0,-86.106 69.801,-155.907 155.906,-155.907 86.106,0 155.907,69.801 155.907,155.907 z"
         style="fill:#c9cdd3;fill-opacity:1;fill-rule:nonzero;stroke:#747b86;stroke-width:8.9664;stroke-linecap:butt;stroke-linejoin:miter;stroke-miterlimit:10;stroke-dasharray:none;stroke-opacity:1"
         id="path28" />
      <path
         d="m 759.484,710.703 1.407,1.391 c 2.984,2.984 6.265,6.375 13.047,6.875 1.093,0.094 2,0.094 2,1.89 0,0.797 -0.5,1.204 -1.297,1.204 -2.594,0 -5.485,-0.297 -8.172,-0.297 -3.297,0 -6.781,0.297 -9.969,0.297 -0.594,0 -1.891,0 -1.891,-1.891 0,-1.109 1,-1.203 1.485,-1.203 0.703,0 3.594,-0.203 3.594,-2.297 0,-1.688 -2.297,-4.281 -2.688,-4.781 l -23.125,-26.594 -10.953,29.594 c -0.594,1.39 -0.594,1.593 -0.594,1.687 0,2.391 4.875,2.391 5.875,2.391 1.391,0 2.391,0 2.391,2 0,1.094 -1.203,1.094 -1.5,1.094 -2.781,0 -9.766,-0.297 -12.547,-0.297 -2.5,0 -8.672,0.297 -11.172,0.297 -0.594,0 -1.891,0 -1.891,-2 0,-1.094 1,-1.094 2.297,-1.094 5.985,0 6.375,-0.891 7.266,-3.391 l 12.266,-32.781 c 0.093,-0.297 0.39,-1.391 0.39,-1.688 0,-0.296 -3.984,-16.343 -4.484,-18.14 -1.297,-5.485 -1.391,-5.781 -9.36,-5.875 -1.89,0 -2.687,0 -2.687,-2 0,-1.094 1.187,-1.094 1.391,-1.094 2.796,0 9.765,0.297 12.562,0.297 2.781,0 9.953,-0.297 12.75,-0.297 0.703,0 1.891,0 1.891,2 0,1.094 -0.891,1.094 -2.797,1.094 -0.188,0 -2.078,0 -3.781,0.187 -2.094,0.203 -2.688,0.407 -2.688,1.594 0,0.703 0.891,4.188 1.391,6.281 l 3.484,14.047 c 0.5,1.906 0.609,2.203 1.406,3.094 l 24.703,28.406"
         style="fill:#1f2937;fill-opacity:1;fill-rule:nonzero;stroke:none"
         id="path30" />
      <path
         d="m 780.594,682.578 c 0,1.125 -0.828,2.656 -2.781,2.656 -1.891,0 -3.907,-1.812 -3.907,-3.828 0,-1.187 0.907,-2.656 2.782,-2.656 2.031,0 3.906,1.953 3.906,3.828 z m -14.219,-35.422 c -0.281,-0.906 -0.641,-1.734 -0.641,-2.922 0,-3.281 2.797,-5.937 6.625,-5.937 6.985,0 10.047,9.625 10.047,10.672 0,0.906 -0.906,0.906 -1.109,0.906 -0.984,0 -1.047,-0.422 -1.328,-1.187 -1.61,-5.579 -4.672,-8.438 -7.391,-8.438 -1.39,0 -1.75,0.906 -1.75,2.453 0,1.594 0.485,2.922 1.125,4.453 0.688,1.891 1.453,3.766 2.219,5.578 0.641,1.672 3.141,8.032 3.422,8.86 0.219,0.703 0.422,1.531 0.422,2.234 0,3.281 -2.797,5.922 -6.625,5.922 -6.907,0 -10.11,-9.484 -10.11,-10.672 0,-0.906 0.969,-0.906 1.188,-0.906 0.969,0 1.047,0.359 1.25,1.125 1.812,6 4.875,8.5 7.469,8.5 1.109,0 1.734,-0.547 1.734,-2.438 0,-1.609 -0.422,-2.656 -2.156,-6.968 l -4.391,-11.235"
         style="fill:#1f2937;fill-opacity:1;fill-rule:nonzero;stroke:none"
         id="path32" />
      <path
         d="m 816.609,682.578 c 0,1.188 -0.906,2.656 -2.781,2.656 -2.031,0 -3.906,-1.953 -3.906,-3.828 0,-1.125 0.828,-2.656 2.781,-2.656 1.891,0 3.906,1.813 3.906,3.828 z m -14.781,-47 c -1.187,-4.812 -4.875,-8.859 -9,-8.859 -0.906,0 -1.734,0.14 -2.5,0.422 1.813,0.843 2.36,2.515 2.36,3.562 0,1.672 -1.313,2.578 -2.719,2.578 -2.156,0 -3.969,-1.875 -3.969,-4.109 0,-2.656 2.719,-4.391 6.906,-4.391 4.188,0 12.344,2.5 14.5,11.016 l 6.282,24.969 c 0.203,0.765 0.343,1.39 0.343,2.437 0,3.828 -3.281,6.547 -7.453,6.547 -7.75,0 -12.203,-9.687 -12.203,-10.672 0,-0.906 0.969,-0.906 1.172,-0.906 0.844,0 0.906,0.219 1.406,1.266 1.735,4.046 5.36,8.359 9.406,8.359 1.75,0 2.375,-1.188 2.375,-3.406 0,-0.766 -0.14,-1.75 -0.203,-2.094 l -6.703,-26.719"
         style="fill:#1f2937;fill-opacity:1;fill-rule:nonzero;stroke:none"
         id="path34" />
      <path
         d="M 505.113,1071.25 650.98,847.234"
         style="fill:none;stroke:#1f2937;stroke-width:7.9701;stroke-linecap:butt;stroke-linejoin:miter;stroke-miterlimit:10;stroke-dasharray:none;stroke-opacity:1"
         id="path36" />
      <path
         d="m 670.145,817.805 -11.34,51.664 -6.735,-23.903 -24.586,3.508 z"
         style="fill:#1f2937;fill-opacity:1;fill-rule:nonzero;stroke:#1f2937;stroke-width:7.96997;stroke-linecap:butt;stroke-linejoin:miter;stroke-miterlimit:10;stroke-dasharray:none;stroke-opacity:1"
         id="path38" />
      <path
         d="m 1020.73,1068.39 -144,-221.156"
         style="fill:none;stroke:#1f2937;stroke-width:7.9701;stroke-linecap:butt;stroke-linejoin:miter;stroke-miterlimit:10;stroke-dasharray:none;stroke-opacity:1"
         id="path40" />
      <path
         d="m 857.566,817.805 42.661,31.269 -24.586,-3.508 -6.735,23.903 z"
         style="fill:#1f2937;fill-opacity:1;fill-rule:nonzero;stroke:#1f2937;stroke-width:7.96988;stroke-linecap:butt;stroke-linejoin:miter;stroke-miterlimit:10;stroke-dasharray:none;stroke-opacity:1"
         id="path42" />
      <path
         d="m 183.688,1421.45 c 0.453,-3.76 3.046,-6.98 6.906,-6.98 2.25,0 7.906,1.34 7.906,8.51 v 5.04 h -2.516 v -4.94 c 0,-0.99 0,-5.47 -3.234,-5.47 -3.234,0 -3.234,4.3 -3.234,5.73 v 15.71 c 0,5.11 0,8.17 -4.032,11.84 -3.328,2.97 -7.625,4.31 -12.109,4.31 -7.547,0 -13.828,-3.76 -13.828,-9.51 0,-2.78 1.891,-4.31 4.219,-4.31 2.422,0 4.125,1.79 4.125,4.12 0,3.86 -3.938,4.31 -4.032,4.31 2.422,2.33 6.735,3.14 9.329,3.14 4.578,0 9.687,-3.4 9.687,-11.29 v -2.97 c -4.844,-0.17 -11.578,-0.63 -17.578,-3.5 -6.469,-3.14 -8.438,-7.81 -8.438,-11.39 0,-7.36 8.704,-9.78 14.719,-9.78 7.438,0 10.86,4.93 12.11,7.43 z m -0.813,6.21 c 0,-8.71 -6.719,-11.41 -10.672,-11.41 -4.219,0 -8.172,3.06 -8.172,7.55 0,5.92 5.125,12.2 18.844,12.73 v -8.87"
         style="fill:#4c545f;fill-opacity:1;fill-rule:nonzero;stroke:none"
         id="path44" />
      <path
         d="m 229.859,1452.86 c 0,1.53 0,2.34 -1.062,2.34 -0.453,0 -0.641,0 -1.797,-1.07 -0.187,-0.19 -0.984,-0.99 -1.531,-1.44 -2.781,1.97 -5.563,2.51 -8.61,2.51 -11.843,0 -14.812,-6.56 -14.812,-11.12 0,-2.88 1.266,-5.2 3.328,-7.19 3.047,-2.78 6.453,-3.41 11.031,-4.22 4.578,-0.89 6.11,-1.15 8.078,-2.69 0.891,-0.71 3.141,-2.42 3.141,-5.82 0,-7.91 -9.062,-7.91 -10.328,-7.91 -9.141,0 -11.484,7.64 -12.547,12.48 -0.281,0.9 -0.359,1.44 -1.437,1.44 -1.266,0 -1.266,-0.72 -1.266,-2.34 v -11.49 c 0,-1.51 0,-2.32 1.078,-2.32 0.547,0 0.625,0.09 2.25,1.79 0.359,0.53 1.344,1.71 1.797,2.16 3.766,-3.69 7.891,-3.95 10.125,-3.95 11.047,0 14.906,6.45 14.906,12.46 0,4.04 -1.797,6.47 -3.765,8.54 -3.063,2.95 -6.282,3.57 -12.922,4.84 -2.344,0.44 -8.891,1.61 -8.891,6.72 0,2.87 2.063,6.64 10.234,6.64 9.688,0 10.313,-7.44 10.5,-9.69 0.079,-1.08 0.079,-1.61 1.25,-1.61 1.25,0 1.25,0.63 1.25,2.33 v 8.61"
         style="fill:#4c545f;fill-opacity:1;fill-rule:nonzero;stroke:none"
         id="path46" />
      <path
         d="m 265.859,1452.86 c 0,1.53 0,2.34 -1.062,2.34 -0.453,0 -0.641,0 -1.797,-1.07 -0.187,-0.19 -0.984,-0.99 -1.531,-1.44 -2.781,1.97 -5.563,2.51 -8.61,2.51 -11.843,0 -14.812,-6.56 -14.812,-11.12 0,-2.88 1.266,-5.2 3.328,-7.19 3.047,-2.78 6.453,-3.41 11.031,-4.22 4.578,-0.89 6.11,-1.15 8.078,-2.69 0.891,-0.71 3.141,-2.42 3.141,-5.82 0,-7.91 -9.062,-7.91 -10.328,-7.91 -9.141,0 -11.484,7.64 -12.547,12.48 -0.281,0.9 -0.359,1.44 -1.437,1.44 -1.266,0 -1.266,-0.72 -1.266,-2.34 v -11.49 c 0,-1.51 0,-2.32 1.078,-2.32 0.547,0 0.625,0.09 2.25,1.79 0.359,0.53 1.344,1.71 1.797,2.16 3.766,-3.69 7.891,-3.95 10.125,-3.95 11.047,0 14.906,6.45 14.906,12.46 0,4.04 -1.797,6.47 -3.765,8.54 -3.063,2.95 -6.282,3.57 -12.922,4.84 -2.344,0.44 -8.891,1.61 -8.891,6.72 0,2.87 2.063,6.64 10.234,6.64 9.688,0 10.313,-7.44 10.5,-9.69 0.079,-1.08 0.079,-1.61 1.25,-1.61 1.25,0 1.25,0.63 1.25,2.33 v 8.61"
         style="fill:#4c545f;fill-opacity:1;fill-rule:nonzero;stroke:none"
         id="path48" />
      <path
         d="m 287.516,1454.66 -12.922,-0.99 v -2.78 c 5.734,0 6.547,-0.53 6.547,-4.94 v -24.04 c 0,-4.13 -0.985,-4.13 -6.907,-4.13 V 1415 c 4.032,0.17 5.922,0.27 9.86,0.27 1.437,0 5.203,0 9.609,-0.27 v 2.78 c -5.828,0 -6.187,0.45 -6.187,3.95 z m 0.265,15.61 c 0,2.7 -2.156,4.86 -4.843,4.86 -2.782,0 -4.844,-2.25 -4.844,-4.86 0,-2.6 2.062,-4.85 4.844,-4.85 2.687,0 4.843,2.16 4.843,4.85"
         style="fill:#4c545f;fill-opacity:1;fill-rule:nonzero;stroke:none"
         id="path50" />
      <path
         d="m 308.219,1431.06 c 2.234,-1.43 5.015,-2.78 9.156,-2.78 8.516,0 14.984,6.1 14.984,13.19 0,4.39 -2.515,7.45 -3.687,8.7 3.594,3.24 7.812,3.24 8.891,3.24 -0.454,-0.27 -1.172,-0.72 -1.172,-2.33 0,-1 0.625,-2.7 2.687,-2.7 1.266,0 2.703,0.9 2.703,2.78 0,1.7 -1.265,4.48 -4.859,4.48 -2.594,0 -6.625,-0.98 -9.766,-4.2 -2.437,1.97 -5.922,3.22 -9.703,3.22 -8.515,0 -14.984,-6.1 -14.984,-13.19 0,-4.58 2.703,-7.81 4.125,-9.16 -0.172,-0.17 -2.688,-3.31 -2.688,-7.43 0,-3.07 1.438,-6.29 3.86,-7.91 -4.578,-1.44 -8.157,-4.75 -8.157,-8.97 0,-6.37 8.875,-11.48 20.36,-11.48 11.031,0 20.453,4.75 20.453,11.67 0,3.67 -1.703,7.62 -5.016,9.78 -5.031,3.12 -10.234,3.12 -18.75,3.12 -1.797,0 -4.672,0 -5.39,0.19 -2.594,0.53 -4.313,2.95 -4.313,5.83 0,1.44 0.453,2.78 1.266,3.95 z m 9.156,-0.36 c -8,0 -8,8.8 -8,10.77 0,2.42 0.188,5.47 1.719,7.62 1.344,1.8 3.765,3.14 6.281,3.14 8.063,0 8.063,-8.7 8.063,-10.76 0,-2.06 0,-10.77 -8.063,-10.77 z m 4.125,-15.25 c 2.875,0 13.906,-0.09 13.906,-7.36 0,-5.12 -6.906,-9.15 -15.343,-9.15 -8.797,0 -15.438,4.22 -15.438,9.15 0,1.44 0.906,7.36 8.609,7.36 h 8.266"
         style="fill:#4c545f;fill-opacity:1;fill-rule:nonzero;stroke:none"
         id="path52" />
      <path
         d="m 359.688,1438.23 c 0,9.52 6.734,14.19 12.39,14.19 5.281,0 6.453,-4.4 6.453,-9.78 v -20.73 c 0,-4.13 -0.984,-4.13 -6.906,-4.13 V 1415 c 4.219,0.17 5.922,0.27 10.234,0.27 4.297,0 5.469,-0.1 10.219,-0.27 v 2.78 c -4.578,0 -6.812,0 -6.906,2.78 v 17.24 c 0,7.43 0,10.04 -2.516,13.18 -2.062,2.52 -5.468,3.68 -9.953,3.68 -8.344,0 -12.203,-6.19 -13.469,-8.71 h -0.078 v 8.71 l -13.015,-0.99 v -2.78 c 6.093,0 6.906,-0.62 6.906,-5.03 v -23.95 c 0,-4.13 -0.984,-4.13 -6.906,-4.13 V 1415 c 4.218,0.17 5.922,0.27 10.234,0.27 4.297,0 5.469,-0.1 10.219,-0.27 v 2.78 c -5.922,0 -6.906,0 -6.906,4.13 v 16.32"
         style="fill:#4c545f;fill-opacity:1;fill-rule:nonzero;stroke:none"
         id="path54" />
      <path
         d="m 429.891,1435.55 c 1.968,0 2.422,0 2.422,1.89 0,9.23 -5.016,17.76 -16.516,17.76 -10.766,0 -19.188,-9.34 -19.188,-20.47 0,-11.75 9.422,-20.71 20.36,-20.71 10.953,0 15.344,9.59 15.344,11.65 0,0.64 -0.454,1.17 -1.25,1.17 -0.907,0 -1.172,-0.62 -1.266,-0.98 -3.047,-9.16 -11.031,-9.33 -12.375,-9.33 -4.313,0 -7.984,2.42 -10.047,5.47 -2.969,4.39 -3.062,9.78 -3.062,13.55 z m -25.485,2.15 c 0.813,13.82 8.891,15.25 11.391,15.25 4.937,0 10.328,-3.76 10.422,-15.25 h -21.813"
         style="fill:#4c545f;fill-opacity:1;fill-rule:nonzero;stroke:none"
         id="path56" />
      <path
         d="m 469.906,1425.77 c 0,-1.61 0,-1.88 -1.343,-3.77 -2.782,-4.03 -6.907,-5.75 -10.5,-5.75 -3.86,0 -7.454,2.16 -9.782,5.92 -2.328,3.86 -2.515,9.16 -2.515,12.03 0,4.22 0.547,8.97 2.875,12.57 1.968,2.87 5.656,5.65 10.406,5.65 3.766,0 7.359,-1.89 9.781,-5.29 1.078,-1.44 1.078,-1.54 1.078,-3.24 z m 0.266,23.59 c -0.453,0.55 -4.484,5.3 -11.484,5.3 -11.032,0 -20.641,-8.8 -20.641,-20.36 0,-11.22 8.984,-20.28 19.656,-20.28 6.547,0 10.594,3.86 12.203,5.73 v -5.73 l 13.547,0.98 v 2.78 c -6.094,0 -6.906,0.63 -6.906,5.03 v 54.46 l -13.281,-0.99 v -2.78 c 6.093,0 6.906,-0.62 6.906,-5.02 v -19.12"
         style="fill:#4c545f;fill-opacity:1;fill-rule:nonzero;stroke:none"
         id="path58" />
      <path
         d="m 533.422,1477.27 -13.281,-0.99 v -2.78 c 6.093,0 6.906,-0.62 6.906,-5.02 v -46.57 c 0,-4.13 -0.984,-4.13 -6.906,-4.13 V 1415 c 4.218,0.17 5.922,0.27 10.234,0.27 4.297,0 5.469,-0.1 10.219,-0.27 v 2.78 c -5.922,0 -6.906,0 -6.906,4.13 v 16.32 c 0,9.52 6.734,14.19 12.39,14.19 5.281,0 6.453,-4.4 6.453,-9.78 v -20.73 c 0,-4.13 -0.984,-4.13 -6.906,-4.13 V 1415 c 4.219,0.17 5.922,0.27 10.234,0.27 4.297,0 5.469,-0.1 10.219,-0.27 v 2.78 c -4.578,0 -6.812,0 -6.906,2.78 v 17.24 c 0,7.43 0,10.04 -2.516,13.18 -2.062,2.52 -5.468,3.68 -9.953,3.68 -6.015,0 -10.406,-3.14 -13.187,-8.16 h -0.094 v 30.77"
         style="fill:#4c545f;fill-opacity:1;fill-rule:nonzero;stroke:none"
         id="path60" />
      <path
         d="m 603.891,1435.55 c 1.968,0 2.422,0 2.422,1.89 0,9.23 -5.016,17.76 -16.516,17.76 -10.766,0 -19.188,-9.34 -19.188,-20.47 0,-11.75 9.422,-20.71 20.36,-20.71 10.953,0 15.344,9.59 15.344,11.65 0,0.64 -0.454,1.17 -1.25,1.17 -0.907,0 -1.172,-0.62 -1.266,-0.98 -3.047,-9.16 -11.031,-9.33 -12.375,-9.33 -4.313,0 -7.984,2.42 -10.047,5.47 -2.969,4.39 -3.062,9.78 -3.062,13.55 z m -25.485,2.15 c 0.813,13.82 8.891,15.25 11.391,15.25 4.937,0 10.328,-3.76 10.422,-15.25 h -21.813"
         style="fill:#4c545f;fill-opacity:1;fill-rule:nonzero;stroke:none"
         id="path62" />
      <path
         d="m 624.969,1435.55 c 0,3.68 0.984,16.87 11.219,16.87 v -0.09 c -0.172,-0.1 -1.61,-1.17 -1.61,-3.33 0,-2.42 1.875,-3.94 3.938,-3.94 1.89,0 3.953,1.35 3.953,4.03 0,2.88 -2.688,5.57 -6.735,5.57 -5.375,0 -9.14,-3.77 -11.218,-9.33 h -0.078 v 9.33 l -12.75,-0.99 v -2.78 c 6.109,0 6.906,-0.62 6.906,-5.03 v -23.95 c 0,-4.13 -0.985,-4.13 -6.906,-4.13 V 1415 c 4.765,0.17 5.921,0.27 10.5,0.27 3.593,0 5.75,-0.1 11.39,-0.27 v 2.78 h -1.781 c -6.563,0 -6.828,0.99 -6.828,4.31 v 13.46"
         style="fill:#4c545f;fill-opacity:1;fill-rule:nonzero;stroke:none"
         id="path64" />
      <path
         d="m 680.891,1435.55 c 1.968,0 2.422,0 2.422,1.89 0,9.23 -5.016,17.76 -16.516,17.76 -10.766,0 -19.188,-9.34 -19.188,-20.47 0,-11.75 9.422,-20.71 20.36,-20.71 10.953,0 15.344,9.59 15.344,11.65 0,0.64 -0.454,1.17 -1.25,1.17 -0.907,0 -1.172,-0.62 -1.266,-0.98 -3.047,-9.16 -11.031,-9.33 -12.375,-9.33 -4.313,0 -7.984,2.42 -10.047,5.47 -2.969,4.39 -3.062,9.78 -3.062,13.55 z m -25.485,2.15 c 0.813,13.82 8.891,15.25 11.391,15.25 4.937,0 10.328,-3.76 10.422,-15.25 h -21.813"
         style="fill:#4c545f;fill-opacity:1;fill-rule:nonzero;stroke:none"
         id="path66" />
      <path
         d="m 201.25,313.063 c -0.359,1.171 -1.172,1.703 -1.703,1.703 -0.453,0 -0.625,-0.172 -1.266,-0.985 -5.109,-6.547 -12.375,-8.531 -16.5,-8.531 -4.484,0 -7.265,3.422 -7.265,9.344 0,3.765 1.781,12.734 5.015,18.484 2.61,4.563 7.188,8.344 11.672,8.344 1.078,0 4.938,-0.188 6.453,-3.688 -3.937,-0.437 -4.125,-3.859 -4.125,-4.218 0,-2.594 2.422,-2.953 3.047,-2.953 1.703,0 4.485,1.343 4.485,5.375 0,4.218 -3.844,7.718 -9.954,7.718 -11.484,0 -23.156,-12.734 -23.156,-25.75 0,-7.89 4.766,-14.89 13.735,-14.89 8.25,0 16.156,4.484 19.562,10.047"
         style="fill:#747b86;fill-opacity:1;fill-rule:nonzero;stroke:none"
         id="path68" />
      <path
         d="m 241.75,328.672 c 0,8.531 -5.391,14.984 -13.641,14.984 -11.39,0 -23.156,-12.64 -23.156,-25.75 0,-8.343 5.219,-14.89 13.641,-14.89 11.672,0 23.156,13.015 23.156,25.656 z M 218.594,305.25 c -3.141,0 -7.078,2.156 -7.078,9.422 0,3.5 1.781,12.922 5.281,18.766 2.969,5.109 7.547,7.984 11.312,7.984 3.954,0 7.094,-3.234 7.094,-9.344 0,-3.14 -1.703,-13.359 -5.75,-19.547 -2.875,-4.406 -7.078,-7.281 -10.859,-7.281"
         style="fill:#747b86;fill-opacity:1;fill-rule:nonzero;stroke:none"
         id="path70" />
      <path
         d="m 265.594,329.75 c 0.187,0.625 4.125,11.672 11.937,11.672 0.547,0 3.047,0 4.938,-1.344 -2.688,-0.906 -3.141,-3.062 -3.141,-4.14 0,-1.782 1.344,-2.86 3.047,-2.86 2.328,0 4.406,1.969 4.406,4.75 0,3.766 -4.218,5.828 -9.062,5.828 -5.391,0 -8.985,-3.218 -11.141,-6.281 -0.984,4.047 -4.125,6.281 -7.797,6.281 -2.968,0 -5.203,-1.797 -6.828,-5.203 -1.422,-3.14 -2.687,-8.156 -2.687,-8.515 0,-1.172 0.984,-1.172 1.531,-1.172 1.344,0 1.344,0.359 1.797,2.156 1.781,7.172 3.5,10.5 6,10.5 1.437,0 2.344,-0.813 2.344,-3.594 0,-1.89 -0.547,-4.219 -0.641,-4.578 l -6.453,-25.844 c -0.36,-1.25 -0.36,-1.437 -0.36,-1.875 0,-1.625 1.25,-2.515 2.61,-2.515 1.25,0 2.953,0.531 3.672,3.312 l 5.828,23.422"
         style="fill:#747b86;fill-opacity:1;fill-rule:nonzero;stroke:none"
         id="path72" />
      <path
         d="m 304.594,329.75 c 0.187,0.625 4.125,11.672 11.937,11.672 0.547,0 3.047,0 4.938,-1.344 -2.688,-0.906 -3.141,-3.062 -3.141,-4.14 0,-1.782 1.344,-2.86 3.047,-2.86 2.328,0 4.406,1.969 4.406,4.75 0,3.766 -4.218,5.828 -9.062,5.828 -5.391,0 -8.985,-3.218 -11.141,-6.281 -0.984,4.047 -4.125,6.281 -7.797,6.281 -2.968,0 -5.203,-1.797 -6.828,-5.203 -1.422,-3.14 -2.687,-8.156 -2.687,-8.515 0,-1.172 0.984,-1.172 1.531,-1.172 1.344,0 1.344,0.359 1.797,2.156 1.781,7.172 3.5,10.5 6,10.5 1.437,0 2.344,-0.813 2.344,-3.594 0,-1.89 -0.547,-4.219 -0.641,-4.578 l -6.453,-25.844 c -0.36,-1.25 -0.36,-1.437 -0.36,-1.875 0,-1.625 1.25,-2.515 2.61,-2.515 1.25,0 2.953,0.531 3.672,3.312 l 5.828,23.422"
         style="fill:#747b86;fill-opacity:1;fill-rule:nonzero;stroke:none"
         id="path74" />
      <path
         d="m 335.813,324.547 c 6.734,0 11.406,0.719 14.625,1.969 6.281,2.515 7.093,7.547 7.093,9.422 0,4.046 -3.406,7.718 -9.515,7.718 -9.141,0 -22.61,-8.437 -22.61,-24.672 0,-10.046 5.657,-15.968 13.282,-15.968 8.25,0 16.156,4.484 19.562,10.047 -0.359,1.171 -1.172,1.703 -1.703,1.703 -0.453,0 -0.625,-0.172 -1.266,-0.985 -5.109,-6.547 -12.375,-8.531 -16.5,-8.531 -6.109,0 -7,6.828 -7,9.969 0,0.719 0,3.594 1.438,9.328 z m -2.063,2.25 c 4.125,14.344 13.016,14.625 14.266,14.625 3.953,0 5.843,-2.703 5.843,-5.391 0,-9.234 -14.281,-9.234 -20.109,-9.234"
         style="fill:#747b86;fill-opacity:1;fill-rule:nonzero;stroke:none"
         id="path76" />
      <path
         d="m 385.375,363.406 c 0.266,1.157 0.344,1.344 0.344,1.61 0,1.172 -0.797,1.343 -2.328,1.172 l -9.328,-0.813 c -1.344,-0.094 -2.25,-0.187 -2.25,-1.703 0,-1.172 0.906,-1.172 2.421,-1.172 4.219,0 4.219,-0.719 4.219,-1.516 0,-0.093 0,-0.64 -0.359,-1.984 l -11.203,-44.766 c 0,-0.093 -0.453,-1.703 -0.453,-3.062 0,-4.297 3.046,-8.156 7.984,-8.156 4.031,0 5.828,3.312 6.641,5.015 1.609,3.235 2.781,8.532 2.781,8.797 0,1.078 -1.172,1.078 -1.531,1.078 -1.344,0 -1.438,-0.359 -1.797,-2.062 -2.063,-8.25 -3.766,-10.594 -6,-10.594 -1.703,0 -2.344,1.438 -2.344,3.688 0,0.812 0.281,2.781 0.719,4.578 l 12.484,49.89"
         style="fill:#747b86;fill-opacity:1;fill-rule:nonzero;stroke:none"
         id="path78" />
      <path
         d="m 425.422,337.563 c 0.359,1.25 0.359,1.437 0.359,1.796 0,1.516 -1.172,2.5 -2.609,2.5 -1.172,0 -3.141,-0.718 -3.672,-3.218 -0.906,1.797 -3.234,5.015 -7.719,5.015 -10.047,0 -20.906,-13 -20.906,-26.562 0,-9.141 5.297,-14.078 11.219,-14.078 5.375,0 9.328,4.297 11.031,6.187 0.984,-3.953 4.125,-6.187 7.797,-6.187 4.141,0 6.016,3.593 6.734,5.109 1.625,3.328 2.782,8.438 2.782,8.703 0,1.078 -1.157,1.078 -1.516,1.078 -1.359,0 -1.438,-0.359 -1.797,-2.062 -1.531,-5.922 -3.141,-10.594 -6.109,-10.594 -1.703,0 -2.328,1.438 -2.328,3.688 0,0.812 0.265,2.781 0.718,4.578 z m -11.766,-22.344 c -0.797,-3.047 -6.453,-9.969 -11.297,-9.969 -4.937,0 -5.203,6.641 -5.203,7.984 0,4.579 2.688,14.454 4.032,17.86 2.328,5.656 6.64,10.328 10.593,10.328 5.469,0 6.282,-7.547 6.282,-8.172 0,-0.453 0,-0.531 -0.282,-1.437 l -4.125,-16.594"
         style="fill:#747b86;fill-opacity:1;fill-rule:nonzero;stroke:none"
         id="path80" />
      <path
         d="m 451.781,339.891 h 7.719 c 1.516,0 2.5,0 2.5,1.609 0,1.172 -0.891,1.172 -2.328,1.172 H 452.5 l 3.313,13.187 c 0.359,1.266 0.359,1.438 0.359,1.797 0,1.532 -1.156,2.516 -2.594,2.516 -2.422,0 -3.422,-1.969 -3.781,-3.5 l -3.5,-14 h -7.625 c -1.516,0 -2.5,0 -2.5,-1.609 0,-1.172 0.891,-1.172 2.328,-1.172 h 7.094 l -6.375,-25.657 c 0,-0.093 -0.453,-1.703 -0.453,-3.062 0,-4.031 2.781,-8.156 8.078,-8.156 9.062,0 14,13.015 14,13.906 0,0.984 -1.172,0.984 -1.438,0.984 -1.172,0 -1.25,-0.265 -1.797,-1.531 -2.515,-6.281 -6.281,-11.125 -10.593,-11.125 -0.985,0 -2.5,0.188 -2.5,3.688 0,0.812 0.265,2.781 0.718,4.578 l 6.547,26.375"
         style="fill:#747b86;fill-opacity:1;fill-rule:nonzero;stroke:none"
         id="path82" />
      <path
         d="m 479.813,324.547 c 6.734,0 11.406,0.719 14.625,1.969 6.281,2.515 7.093,7.547 7.093,9.422 0,4.046 -3.406,7.718 -9.515,7.718 -9.141,0 -22.61,-8.437 -22.61,-24.672 0,-10.046 5.657,-15.968 13.282,-15.968 8.25,0 16.156,4.484 19.562,10.047 -0.359,1.171 -1.172,1.703 -1.703,1.703 -0.453,0 -0.625,-0.172 -1.266,-0.985 -5.109,-6.547 -12.375,-8.531 -16.5,-8.531 -6.109,0 -7,6.828 -7,9.969 0,0.719 0,3.594 1.438,9.328 z m -2.063,2.25 c 4.125,14.344 13.016,14.625 14.266,14.625 3.953,0 5.843,-2.703 5.843,-5.391 0,-9.234 -14.281,-9.234 -20.109,-9.234"
         style="fill:#747b86;fill-opacity:1;fill-rule:nonzero;stroke:none"
         id="path84" />
      <path
         d="m 546.875,363.406 c 0.266,1.157 0.359,1.344 0.359,1.61 0,1.172 -0.812,1.343 -2.328,1.172 l -9.328,-0.813 c -1.359,-0.094 -2.25,-0.187 -2.25,-1.703 0,-1.172 0.891,-1.172 2.422,-1.172 4.219,0 4.219,-0.719 4.219,-1.516 0,-0.546 0,-0.718 -0.36,-1.984 L 534.5,338.641 c -0.906,1.797 -3.234,5.015 -7.719,5.015 -10.047,0 -20.906,-13 -20.906,-26.562 0,-9.141 5.297,-14.078 11.219,-14.078 5.375,0 9.328,4.297 11.031,6.187 0.984,-3.953 4.125,-6.187 7.797,-6.187 4.141,0 6.016,3.593 6.734,5.109 1.625,3.328 2.782,8.438 2.782,8.703 0,1.078 -1.157,1.078 -1.516,1.078 -1.359,0 -1.438,-0.359 -1.797,-2.062 -1.531,-5.922 -3.141,-10.594 -6.109,-10.594 -1.703,0 -2.328,1.438 -2.328,3.688 0,0.812 0.265,2.781 0.718,4.578 z m -18.219,-48.187 c -0.797,-3.047 -6.453,-9.969 -11.297,-9.969 -4.937,0 -5.203,6.641 -5.203,7.984 0,4.579 2.688,14.454 4.032,17.86 2.328,5.656 6.64,10.328 10.593,10.328 5.469,0 6.282,-7.547 6.282,-8.172 0,-0.453 0,-0.531 -0.282,-1.437 l -4.125,-16.594"
         style="fill:#747b86;fill-opacity:1;fill-rule:nonzero;stroke:none"
         id="path86" />
      <path
         d="m 599.594,329.75 c 0.187,0.625 4.125,11.672 11.937,11.672 0.547,0 3.047,0 4.938,-1.344 -2.688,-0.906 -3.141,-3.062 -3.141,-4.14 0,-1.782 1.344,-2.86 3.047,-2.86 2.328,0 4.406,1.969 4.406,4.75 0,3.766 -4.218,5.828 -9.062,5.828 -5.391,0 -8.985,-3.218 -11.141,-6.281 -0.984,4.047 -4.125,6.281 -7.797,6.281 -2.968,0 -5.203,-1.797 -6.828,-5.203 -1.422,-3.14 -2.687,-8.156 -2.687,-8.515 0,-1.172 0.984,-1.172 1.531,-1.172 1.344,0 1.344,0.359 1.797,2.156 1.781,7.172 3.5,10.5 6,10.5 1.437,0 2.344,-0.813 2.344,-3.594 0,-1.89 -0.547,-4.219 -0.641,-4.578 l -6.453,-25.844 c -0.36,-1.25 -0.36,-1.437 -0.36,-1.875 0,-1.625 1.25,-2.515 2.61,-2.515 1.25,0 2.953,0.531 3.672,3.312 l 5.828,23.422"
         style="fill:#747b86;fill-opacity:1;fill-rule:nonzero;stroke:none"
         id="path88" />
      <path
         d="m 630.813,324.547 c 6.734,0 11.406,0.719 14.625,1.969 6.281,2.515 7.093,7.547 7.093,9.422 0,4.046 -3.406,7.718 -9.515,7.718 -9.141,0 -22.61,-8.437 -22.61,-24.672 0,-10.046 5.657,-15.968 13.282,-15.968 8.25,0 16.156,4.484 19.562,10.047 -0.359,1.171 -1.172,1.703 -1.703,1.703 -0.453,0 -0.625,-0.172 -1.266,-0.985 -5.109,-6.547 -12.375,-8.531 -16.5,-8.531 -6.109,0 -7,6.828 -7,9.969 0,0.719 0,3.594 1.438,9.328 z m -2.063,2.25 c 4.125,14.344 13.016,14.625 14.266,14.625 3.953,0 5.843,-2.703 5.843,-5.391 0,-9.234 -14.281,-9.234 -20.109,-9.234"
         style="fill:#747b86;fill-opacity:1;fill-rule:nonzero;stroke:none"
         id="path90" />
      <path
         d="m 661.172,292.609 c -0.719,-2.875 -1.359,-3.234 -4.859,-3.234 -0.797,0 -1.875,0 -1.875,-1.609 0,-0.453 0.171,-1.172 1.171,-1.172 2.329,0 5.11,0.265 7.625,0.265 2.954,0 6,-0.265 8.782,-0.265 0.453,0 1.625,0 1.625,1.609 0,1.172 -0.985,1.172 -2.422,1.172 -4.219,0 -4.219,0.625 -4.219,1.438 0,0.984 3.766,15.343 4.219,17.14 1.875,-3.422 4.578,-4.937 7.719,-4.937 10.218,0 20.906,13.359 20.906,26.468 0,8.704 -4.844,14.172 -11.313,14.172 -4.75,0 -8.156,-3.312 -11.031,-6.093 -1.266,4.937 -5.203,6.093 -7.719,6.093 -2.968,0 -5.203,-1.797 -6.828,-5.203 -1.422,-3.14 -2.687,-8.156 -2.687,-8.515 0,-1.172 0.984,-1.172 1.531,-1.172 1.344,0 1.344,0.359 1.797,2.156 1.781,7.172 3.5,10.5 6,10.5 1.437,0 2.344,-0.813 2.344,-3.594 0,-1.89 -0.547,-4.219 -0.641,-4.578 z m 15.875,38.766 c 0.719,2.688 2.609,4.75 4.578,6.625 2.875,2.781 5.375,3.422 6.734,3.422 4.922,0 5.204,-6.828 5.204,-7.984 0,-4.672 -2.782,-15.079 -4.579,-19.032 -2.25,-4.843 -6.281,-9.156 -10.046,-9.156 -1.985,0 -3.5,1 -4.672,2.875 -1.344,2.156 -1.61,5.203 -1.61,5.391 0,0.172 0.078,0.89 0.172,1.156 l 4.219,16.703"
         style="fill:#747b86;fill-opacity:1;fill-rule:nonzero;stroke:none"
         id="path92" />
      <path
         d="m 727.375,363.406 c 0.266,1.157 0.344,1.344 0.344,1.61 0,1.172 -0.797,1.343 -2.328,1.172 l -9.328,-0.813 c -1.344,-0.094 -2.25,-0.187 -2.25,-1.703 0,-1.172 0.906,-1.172 2.421,-1.172 4.219,0 4.219,-0.719 4.219,-1.516 0,-0.093 0,-0.64 -0.359,-1.984 l -11.203,-44.766 c 0,-0.093 -0.453,-1.703 -0.453,-3.062 0,-4.297 3.046,-8.156 7.984,-8.156 4.031,0 5.828,3.312 6.641,5.015 1.609,3.235 2.781,8.532 2.781,8.797 0,1.078 -1.172,1.078 -1.531,1.078 -1.344,0 -1.438,-0.359 -1.797,-2.062 -2.063,-8.25 -3.766,-10.594 -6,-10.594 -1.703,0 -2.344,1.438 -2.344,3.688 0,0.812 0.281,2.781 0.719,4.578 l 12.484,49.89"
         style="fill:#747b86;fill-opacity:1;fill-rule:nonzero;stroke:none"
         id="path94" />
      <path
         d="m 752.516,359.906 c 0,1.438 -1.078,2.953 -2.953,2.953 -2.157,0 -4.313,-1.875 -4.313,-4.125 0,-2.515 2.063,-3.046 3.047,-3.046 2.25,0 4.219,2.062 4.219,4.218 z m 1.078,-43.078 c 0,1.078 -1.156,1.078 -1.516,1.078 -1.265,0 -1.359,-0.265 -1.89,-2.156 -0.891,-3.219 -3.407,-10.5 -8.25,-10.5 -0.719,0 -1.891,0.094 -1.891,2.516 0,1.531 0.547,3.593 1.531,6.375 1.25,3.312 1.25,3.5 2.781,7.265 l 3.047,8.438 c 0.813,2.062 1.797,4.75 1.797,6.453 0,4.406 -3.047,7.359 -7.094,7.359 -8.515,0 -11.843,-13 -11.843,-13.812 0,-1.078 1.078,-1.078 1.531,-1.078 1.25,0 1.344,0.453 1.703,1.531 0.625,2.328 3.047,11.125 8.344,11.125 0.89,0 1.89,-0.188 1.89,-2.516 0,-2.156 -0.64,-3.953 -2.156,-8.172 l -3.14,-8.343 c -0.547,-1.61 -1.985,-5.375 -2.25,-6.188 -0.719,-1.89 -1.516,-4.031 -1.516,-5.828 0,-4.844 3.406,-7.359 7.078,-7.359 8.531,0 11.844,13.187 11.844,13.812"
         style="fill:#747b86;fill-opacity:1;fill-rule:nonzero;stroke:none"
         id="path96" />
      <path
         d="m 795.25,313.063 c -0.359,1.171 -1.172,1.703 -1.703,1.703 -0.453,0 -0.625,-0.172 -1.266,-0.985 -5.109,-6.547 -12.375,-8.531 -16.5,-8.531 -4.484,0 -7.265,3.422 -7.265,9.344 0,3.765 1.781,12.734 5.015,18.484 2.61,4.563 7.188,8.344 11.672,8.344 1.078,0 4.938,-0.188 6.453,-3.688 -3.937,-0.437 -4.125,-3.859 -4.125,-4.218 0,-2.594 2.422,-2.953 3.047,-2.953 1.703,0 4.485,1.343 4.485,5.375 0,4.218 -3.844,7.718 -9.954,7.718 -11.484,0 -23.156,-12.734 -23.156,-25.75 0,-7.89 4.766,-14.89 13.735,-14.89 8.25,0 16.156,4.484 19.562,10.047"
         style="fill:#747b86;fill-opacity:1;fill-rule:nonzero;stroke:none"
         id="path98" />
      <path
         d="m 833.422,337.563 c 0.359,1.25 0.359,1.437 0.359,1.796 0,1.516 -1.172,2.5 -2.609,2.5 -1.172,0 -3.141,-0.718 -3.672,-3.218 -0.906,1.797 -3.234,5.015 -7.719,5.015 -10.047,0 -20.906,-13 -20.906,-26.562 0,-9.141 5.297,-14.078 11.219,-14.078 5.375,0 9.328,4.297 11.031,6.187 0.984,-3.953 4.125,-6.187 7.797,-6.187 4.141,0 6.016,3.593 6.734,5.109 1.625,3.328 2.782,8.438 2.782,8.703 0,1.078 -1.157,1.078 -1.516,1.078 -1.359,0 -1.438,-0.359 -1.797,-2.062 -1.531,-5.922 -3.141,-10.594 -6.109,-10.594 -1.703,0 -2.328,1.438 -2.328,3.688 0,0.812 0.265,2.781 0.718,4.578 z m -11.766,-22.344 c -0.797,-3.047 -6.453,-9.969 -11.297,-9.969 -4.937,0 -5.203,6.641 -5.203,7.984 0,4.579 2.688,14.454 4.032,17.86 2.328,5.656 6.64,10.328 10.593,10.328 5.469,0 6.282,-7.547 6.282,-8.172 0,-0.453 0,-0.531 -0.282,-1.437 l -4.125,-16.594"
         style="fill:#747b86;fill-opacity:1;fill-rule:nonzero;stroke:none"
         id="path100" />
      <path
         d="m 859.781,339.891 h 7.719 c 1.516,0 2.5,0 2.5,1.609 0,1.172 -0.891,1.172 -2.328,1.172 H 860.5 l 3.313,13.187 c 0.359,1.266 0.359,1.438 0.359,1.797 0,1.532 -1.156,2.516 -2.594,2.516 -2.422,0 -3.422,-1.969 -3.781,-3.5 l -3.5,-14 h -7.625 c -1.516,0 -2.5,0 -2.5,-1.609 0,-1.172 0.891,-1.172 2.328,-1.172 h 7.094 l -6.375,-25.657 c 0,-0.093 -0.453,-1.703 -0.453,-3.062 0,-4.031 2.781,-8.156 8.078,-8.156 9.062,0 14,13.015 14,13.906 0,0.984 -1.172,0.984 -1.438,0.984 -1.172,0 -1.25,-0.265 -1.797,-1.531 -2.515,-6.281 -6.281,-11.125 -10.593,-11.125 -0.985,0 -2.5,0.188 -2.5,3.688 0,0.812 0.265,2.781 0.718,4.578 l 6.547,26.375"
         style="fill:#747b86;fill-opacity:1;fill-rule:nonzero;stroke:none"
         id="path102" />
      <path
         d="m 887.813,324.547 c 6.734,0 11.406,0.719 14.625,1.969 6.281,2.515 7.093,7.547 7.093,9.422 0,4.046 -3.406,7.718 -9.515,7.718 -9.141,0 -22.61,-8.437 -22.61,-24.672 0,-10.046 5.657,-15.968 13.282,-15.968 8.25,0 16.156,4.484 19.562,10.047 -0.359,1.171 -1.172,1.703 -1.703,1.703 -0.453,0 -0.625,-0.172 -1.266,-0.985 -5.109,-6.547 -12.375,-8.531 -16.5,-8.531 -6.109,0 -7,6.828 -7,9.969 0,0.719 0,3.594 1.438,9.328 z m -2.063,2.25 c 4.125,14.344 13.016,14.625 14.266,14.625 3.953,0 5.843,-2.703 5.843,-5.391 0,-9.234 -14.281,-9.234 -20.109,-9.234"
         style="fill:#747b86;fill-opacity:1;fill-rule:nonzero;stroke:none"
         id="path104" />
      <path
         d="m 944.172,337.203 c -3.313,-0.625 -3.313,-3.406 -3.313,-3.594 0,-0.812 0.532,-2.515 2.688,-2.515 1.969,0 3.859,1.531 3.859,4.844 0,4.046 -3.593,7.718 -10.047,7.718 -10.5,0 -14.453,-8.343 -14.453,-13.281 0,-7 6.016,-8.25 8.703,-8.875 4.219,-0.906 8.25,-1.797 8.25,-6.469 0,-2.593 -2.14,-9.781 -11.921,-9.781 -2.344,0 -7.36,0.641 -8.797,4.844 4.218,0.453 4.218,4.14 4.218,4.219 0,2.421 -2.062,2.968 -3.046,2.968 -0.547,0 -4.5,-0.265 -4.5,-5.562 0,-5.031 4.765,-8.703 12.125,-8.703 13.718,0 17.218,10.937 17.218,14.984 0,2.516 -0.89,4.844 -2.687,6.734 -2.328,2.329 -4.391,2.782 -8.438,3.579 -2.687,0.625 -5.922,1.265 -5.922,5.125 0,1.609 1.438,7.984 9.25,7.984 2.688,0 5.922,-1.078 6.813,-4.219"
         style="fill:#747b86;fill-opacity:1;fill-rule:nonzero;stroke:none"
         id="path106" />
      <path
         d="m 1006.02,359.984 c 0,1.985 -1.44,3.329 -3.41,3.329 -2.42,0 -4.844,-2.329 -4.844,-4.75 0,-1.797 1.343,-3.329 3.404,-3.329 2.42,0 4.85,2.25 4.85,4.75 z m 1.26,-43.156 c 0,0.453 -0.26,1.078 -1.17,1.078 -0.98,0 -1.08,-0.453 -1.44,-1.609 -2.15,-7.359 -5.826,-11.047 -9.232,-11.047 -1.438,0 -2.157,0.719 -2.157,2.969 0,2.156 0.719,4.125 1.438,5.828 1.609,4.312 1.609,4.484 2.781,7.266 1.438,3.859 3.41,8.984 4.3,11.484 0.64,1.625 0.64,2.516 0.64,3.328 0,5.109 -4.049,7.531 -7.627,7.531 -8.719,0 -12.204,-12.828 -12.204,-13.812 0,-0.813 0.625,-1.078 1.25,-1.078 0.985,0 1.079,0.531 1.438,1.703 1.875,6.375 5.297,10.953 9.234,10.953 0.907,0 2.157,-0.188 2.157,-2.875 0,-2.25 -0.891,-4.578 -1.704,-6.641 l -6.375,-16.593 c -0.625,-1.719 -1.156,-3.141 -1.156,-4.766 0,-4.219 3.141,-7.531 7.719,-7.531 8.708,0 12.108,12.922 12.108,13.812"
         style="fill:#747b86;fill-opacity:1;fill-rule:nonzero;stroke:none"
         id="path108" />
      <path
         d="m 601.516,101.906 c 0,1.438 -1.078,2.953 -2.953,2.953 -2.157,0 -4.313,-1.875 -4.313,-4.125 0,-2.5152 2.063,-3.0465 3.047,-3.0465 2.25,0 4.219,2.0625 4.219,4.2185 z m 1.078,-43.0779 c 0,1.0782 -1.156,1.0782 -1.516,1.0782 -1.265,0 -1.359,-0.2657 -1.89,-2.1563 -0.891,-3.2187 -3.407,-10.5 -8.25,-10.5 -0.719,0 -1.891,0.0938 -1.891,2.5156 0,1.5313 0.547,3.5938 1.531,6.375 1.25,3.3125 1.25,3.5 2.781,7.2657 l 3.047,8.4375 c 0.813,2.0625 1.797,4.75 1.797,6.4531 0,4.4062 -3.047,7.3594 -7.094,7.3594 -8.515,0 -11.843,-13 -11.843,-13.8125 0,-1.0782 1.078,-1.0782 1.531,-1.0782 1.25,0 1.344,0.4532 1.703,1.5313 0.625,2.3281 3.047,11.125 8.344,11.125 0.89,0 1.89,-0.1875 1.89,-2.5156 0,-2.1563 -0.64,-3.9532 -2.156,-8.1719 l -3.14,-8.3438 c -0.547,-1.6093 -1.985,-5.375 -2.25,-6.1875 -0.719,-1.8906 -1.516,-4.0312 -1.516,-5.8281 0,-4.8437 3.406,-7.3594 7.078,-7.3594 8.531,0 11.844,13.1875 11.844,13.8125"
         style="fill:#747b86;fill-opacity:1;fill-rule:nonzero;stroke:none"
         id="path110" />
      <path
         d="m 611.844,49.4063 c -0.36,-1.25 -0.36,-1.4375 -0.36,-1.875 0,-1.625 1.25,-2.5157 2.61,-2.5157 2.859,0 3.312,1.7969 4.484,6.7344 0.438,1.7031 1.703,6.4531 1.969,7.7031 0.719,2.9688 2.328,9.25 2.875,11.6719 0.359,1.1719 2.875,5.8281 5.016,7.9844 1.359,1.3437 4.312,4.3125 9.156,4.3125 3.406,0 4.219,-2.9688 4.219,-5.8438 0,-5.2031 -3.86,-15.7812 -5.375,-19.8281 -1.079,-2.9531 -1.266,-3.5 -1.266,-5.375 0,-4.8437 3.406,-7.3594 7.094,-7.3594 8.515,0 11.843,13.1875 11.843,13.8125 0,1.0782 -1.171,1.0782 -1.531,1.0782 -1.25,0 -1.344,-0.2657 -1.875,-2.1563 -0.906,-3.2187 -3.422,-10.5 -8.265,-10.5 -0.719,0 -1.875,0.0938 -1.875,2.5156 0,2.1563 1.078,5.0313 1.796,7 1.61,4.3125 5.282,14.2657 5.282,19.3907 0,6 -3.578,9.5 -9.86,9.5 -6.468,0 -10.765,-3.9375 -13.109,-6.8125 -0.797,4.4843 -4.125,6.8125 -7.891,6.8125 -2.968,0 -5.203,-1.7969 -6.828,-5.2032 -1.422,-3.1406 -2.687,-8.1562 -2.687,-8.5156 0,-1.1719 0.984,-1.1719 1.531,-1.1719 1.344,0 1.344,0.3594 1.797,2.1563 1.781,7.1719 3.5,10.5 6,10.5 1.437,0 2.344,-0.8125 2.344,-3.5938 0,-1.8906 -0.547,-4.2187 -0.641,-4.5781 l -6.453,-25.8437"
         style="fill:#747b86;fill-opacity:1;fill-rule:nonzero;stroke:none"
         id="path112" />
      <path
         d="m 702.875,105.406 c 0.266,1.157 0.359,1.344 0.359,1.61 0,1.172 -0.812,1.343 -2.328,1.172 l -9.328,-0.813 c -1.359,-0.094 -2.25,-0.187 -2.25,-1.703 0,-1.172 0.891,-1.172 2.422,-1.172 4.219,0 4.219,-0.719 4.219,-1.516 0,-0.546 0,-0.718 -0.36,-1.984 L 690.5,80.6406 c -0.906,1.7969 -3.234,5.0157 -7.719,5.0157 -10.047,0 -20.906,-13 -20.906,-26.5625 0,-9.1407 5.297,-14.0782 11.219,-14.0782 5.375,0 9.328,4.2969 11.031,6.1875 0.984,-3.9531 4.125,-6.1875 7.797,-6.1875 4.141,0 6.016,3.5938 6.734,5.1094 1.625,3.3281 2.782,8.4375 2.782,8.7031 0,1.0782 -1.157,1.0782 -1.516,1.0782 -1.359,0 -1.438,-0.3594 -1.797,-2.0625 -1.531,-5.9219 -3.141,-10.5938 -6.109,-10.5938 -1.703,0 -2.328,1.4375 -2.328,3.6875 0,0.8125 0.265,2.7813 0.718,4.5781 z M 684.656,57.2188 c -0.797,-3.0469 -6.453,-9.9688 -11.297,-9.9688 -4.937,0 -5.203,6.6406 -5.203,7.9844 0,4.5781 2.688,14.4531 4.032,17.8594 2.328,5.6562 6.64,10.3281 10.593,10.3281 5.469,0 6.282,-7.5469 6.282,-8.1719 0,-0.4531 0,-0.5312 -0.282,-1.4375 l -4.125,-16.5937"
         style="fill:#747b86;fill-opacity:1;fill-rule:nonzero;stroke:none"
         id="path114" />
      <path
         d="m 719.813,66.5469 c 6.734,0 11.406,0.7187 14.625,1.9687 6.281,2.5157 7.093,7.5469 7.093,9.4219 0,4.0469 -3.406,7.7188 -9.515,7.7188 -9.141,0 -22.61,-8.4375 -22.61,-24.6719 0,-10.0469 5.657,-15.9688 13.282,-15.9688 8.25,0 16.156,4.4844 19.562,10.0469 -0.359,1.1719 -1.172,1.7031 -1.703,1.7031 -0.453,0 -0.625,-0.1718 -1.266,-0.9843 -5.109,-6.5469 -12.375,-8.5313 -16.5,-8.5313 -6.109,0 -7,6.8281 -7,9.9688 0,0.7187 0,3.5937 1.438,9.3281 z m -2.063,2.25 c 4.125,14.3437 13.016,14.625 14.266,14.625 3.953,0 5.843,-2.7031 5.843,-5.3906 0,-9.2344 -14.281,-9.2344 -20.109,-9.2344"
         style="fill:#747b86;fill-opacity:1;fill-rule:nonzero;stroke:none"
         id="path116" />
      <path
         d="m 749.172,34.6094 c -0.719,-2.875 -1.359,-3.2344 -4.859,-3.2344 -0.797,0 -1.875,0 -1.875,-1.6094 0,-0.4531 0.171,-1.1718 1.171,-1.1718 2.329,0 5.11,0.2656 7.625,0.2656 2.954,0 6,-0.2656 8.782,-0.2656 0.453,0 1.625,0 1.625,1.6093 0,1.1719 -0.985,1.1719 -2.422,1.1719 C 755,31.375 755,32 755,32.8125 c 0,0.9844 3.766,15.3438 4.219,17.1406 1.875,-3.4218 4.578,-4.9375 7.719,-4.9375 10.218,0 20.906,13.3594 20.906,26.4688 0,8.7031 -4.844,14.1719 -11.313,14.1719 -4.75,0 -8.156,-3.3125 -11.031,-6.0938 -1.266,4.9375 -5.203,6.0938 -7.719,6.0938 -2.968,0 -5.203,-1.7969 -6.828,-5.2032 -1.422,-3.1406 -2.687,-8.1562 -2.687,-8.5156 0,-1.1719 0.984,-1.1719 1.531,-1.1719 1.344,0 1.344,0.3594 1.797,2.1563 1.781,7.1719 3.5,10.5 6,10.5 1.437,0 2.344,-0.8125 2.344,-3.5938 0,-1.8906 -0.547,-4.2187 -0.641,-4.5781 z m 15.875,38.7656 c 0.719,2.6875 2.609,4.75 4.578,6.625 2.875,2.7813 5.375,3.4219 6.734,3.4219 4.922,0 5.204,-6.8281 5.204,-7.9844 0,-4.6719 -2.782,-15.0781 -4.579,-19.0312 -2.25,-4.8438 -6.281,-9.1563 -10.046,-9.1563 -1.985,0 -3.5,1 -4.672,2.875 -1.344,2.1563 -1.61,5.2031 -1.61,5.3906 0,0.1719 0.078,0.8907 0.172,1.1563 l 4.219,16.7031"
         style="fill:#747b86;fill-opacity:1;fill-rule:nonzero;stroke:none"
         id="path118" />
      <path
         d="m 804.813,66.5469 c 6.734,0 11.406,0.7187 14.625,1.9687 6.281,2.5157 7.093,7.5469 7.093,9.4219 0,4.0469 -3.406,7.7188 -9.515,7.7188 -9.141,0 -22.61,-8.4375 -22.61,-24.6719 0,-10.0469 5.657,-15.9688 13.282,-15.9688 8.25,0 16.156,4.4844 19.562,10.0469 -0.359,1.1719 -1.172,1.7031 -1.703,1.7031 -0.453,0 -0.625,-0.1718 -1.266,-0.9843 -5.109,-6.5469 -12.375,-8.5313 -16.5,-8.5313 -6.109,0 -7,6.8281 -7,9.9688 0,0.7187 0,3.5937 1.438,9.3281 z m -2.063,2.25 c 4.125,14.3437 13.016,14.625 14.266,14.625 3.953,0 5.843,-2.7031 5.843,-5.3906 0,-9.2344 -14.281,-9.2344 -20.109,-9.2344"
         style="fill:#747b86;fill-opacity:1;fill-rule:nonzero;stroke:none"
         id="path120" />
      <path
         d="m 837.844,49.4063 c -0.36,-1.25 -0.36,-1.4375 -0.36,-1.875 0,-1.625 1.25,-2.5157 2.61,-2.5157 2.859,0 3.312,1.7969 4.484,6.7344 0.438,1.7031 1.703,6.4531 1.969,7.7031 0.719,2.9688 2.328,9.25 2.875,11.6719 0.359,1.1719 2.875,5.8281 5.016,7.9844 1.359,1.3437 4.312,4.3125 9.156,4.3125 3.406,0 4.219,-2.9688 4.219,-5.8438 0,-5.2031 -3.86,-15.7812 -5.375,-19.8281 -1.079,-2.9531 -1.266,-3.5 -1.266,-5.375 0,-4.8437 3.406,-7.3594 7.094,-7.3594 8.515,0 11.843,13.1875 11.843,13.8125 0,1.0782 -1.171,1.0782 -1.531,1.0782 -1.25,0 -1.344,-0.2657 -1.875,-2.1563 -0.906,-3.2187 -3.422,-10.5 -8.265,-10.5 -0.719,0 -1.875,0.0938 -1.875,2.5156 0,2.1563 1.078,5.0313 1.796,7 1.61,4.3125 5.282,14.2657 5.282,19.3907 0,6 -3.578,9.5 -9.86,9.5 -6.468,0 -10.765,-3.9375 -13.109,-6.8125 -0.797,4.4843 -4.125,6.8125 -7.891,6.8125 -2.968,0 -5.203,-1.7969 -6.828,-5.2032 -1.422,-3.1406 -2.687,-8.1562 -2.687,-8.5156 0,-1.1719 0.984,-1.1719 1.531,-1.1719 1.344,0 1.344,0.3594 1.797,2.1563 1.781,7.1719 3.5,10.5 6,10.5 1.437,0 2.344,-0.8125 2.344,-3.5938 0,-1.8906 -0.547,-4.2187 -0.641,-4.5781 l -6.453,-25.8437"
         style="fill:#747b86;fill-opacity:1;fill-rule:nonzero;stroke:none"
         id="path122" />
      <path
         d="m 928.875,105.406 c 0.266,1.157 0.359,1.344 0.359,1.61 0,1.172 -0.812,1.343 -2.328,1.172 l -9.328,-0.813 c -1.359,-0.094 -2.25,-0.187 -2.25,-1.703 0,-1.172 0.891,-1.172 2.422,-1.172 4.219,0 4.219,-0.719 4.219,-1.516 0,-0.546 0,-0.718 -0.36,-1.984 L 916.5,80.6406 c -0.906,1.7969 -3.234,5.0157 -7.719,5.0157 -10.047,0 -20.906,-13 -20.906,-26.5625 0,-9.1407 5.297,-14.0782 11.219,-14.0782 5.375,0 9.328,4.2969 11.031,6.1875 0.984,-3.9531 4.125,-6.1875 7.797,-6.1875 4.141,0 6.016,3.5938 6.734,5.1094 1.625,3.3281 2.782,8.4375 2.782,8.7031 0,1.0782 -1.157,1.0782 -1.516,1.0782 -1.359,0 -1.438,-0.3594 -1.797,-2.0625 -1.531,-5.9219 -3.141,-10.5938 -6.109,-10.5938 -1.703,0 -2.328,1.4375 -2.328,3.6875 0,0.8125 0.265,2.7813 0.718,4.5781 z M 910.656,57.2188 c -0.797,-3.0469 -6.453,-9.9688 -11.297,-9.9688 -4.937,0 -5.203,6.6406 -5.203,7.9844 0,4.5781 2.688,14.4531 4.032,17.8594 2.328,5.6562 6.64,10.3281 10.593,10.3281 5.469,0 6.282,-7.5469 6.282,-8.1719 0,-0.4531 0,-0.5312 -0.282,-1.4375 l -4.125,-16.5937"
         style="fill:#747b86;fill-opacity:1;fill-rule:nonzero;stroke:none"
         id="path124" />
      <path
         d="m 945.813,66.5469 c 6.734,0 11.406,0.7187 14.625,1.9687 6.281,2.5157 7.093,7.5469 7.093,9.4219 0,4.0469 -3.406,7.7188 -9.515,7.7188 -9.141,0 -22.61,-8.4375 -22.61,-24.6719 0,-10.0469 5.657,-15.9688 13.282,-15.9688 8.25,0 16.156,4.4844 19.562,10.0469 -0.359,1.1719 -1.172,1.7031 -1.703,1.7031 -0.453,0 -0.625,-0.1718 -1.266,-0.9843 -5.109,-6.5469 -12.375,-8.5313 -16.5,-8.5313 -6.109,0 -7,6.8281 -7,9.9688 0,0.7187 0,3.5937 1.438,9.3281 z m -2.063,2.25 c 4.125,14.3437 13.016,14.625 14.266,14.625 3.953,0 5.843,-2.7031 5.843,-5.3906 0,-9.2344 -14.281,-9.2344 -20.109,-9.2344"
         style="fill:#747b86;fill-opacity:1;fill-rule:nonzero;stroke:none"
         id="path126" />
      <path
         d="m 978.844,49.4063 c -0.36,-1.25 -0.36,-1.4375 -0.36,-1.875 0,-1.625 1.25,-2.5157 2.61,-2.5157 2.859,0 3.312,1.7969 4.484,6.7344 0.438,1.7031 1.703,6.4531 1.969,7.7031 0.719,2.9688 2.328,9.25 2.875,11.6719 0.359,1.1719 2.875,5.8281 5.016,7.9844 1.359,1.3437 4.312,4.3125 9.152,4.3125 3.41,0 4.22,-2.9688 4.22,-5.8438 0,-5.2031 -3.86,-15.7812 -5.37,-19.8281 -1.08,-2.9531 -1.27,-3.5 -1.27,-5.375 0,-4.8437 3.41,-7.3594 7.1,-7.3594 8.51,0 11.84,13.1875 11.84,13.8125 0,1.0782 -1.17,1.0782 -1.53,1.0782 -1.25,0 -1.35,-0.2657 -1.88,-2.1563 -0.9,-3.2187 -3.42,-10.5 -8.26,-10.5 -0.72,0 -1.88,0.0938 -1.88,2.5156 0,2.1563 1.08,5.0313 1.8,7 1.61,4.3125 5.28,14.2657 5.28,19.3907 0,6 -3.58,9.5 -9.86,9.5 -6.467,0 -10.764,-3.9375 -13.108,-6.8125 -0.797,4.4843 -4.125,6.8125 -7.891,6.8125 -2.968,0 -5.203,-1.7969 -6.828,-5.2032 -1.422,-3.1406 -2.687,-8.1562 -2.687,-8.5156 0,-1.1719 0.984,-1.1719 1.531,-1.1719 1.344,0 1.344,0.3594 1.797,2.1563 1.781,7.1719 3.5,10.5 6,10.5 1.437,0 2.344,-0.8125 2.344,-3.5938 0,-1.8906 -0.547,-4.2187 -0.641,-4.5781 l -6.453,-25.8437"
         style="fill:#747b86;fill-opacity:1;fill-rule:nonzero;stroke:none"
         id="path128" />
      <path
         d="m 1042.78,81.8906 h 7.72 c 1.52,0 2.5,0 2.5,1.6094 0,1.1719 -0.89,1.1719 -2.33,1.1719 h -7.17 l 3.31,13.1875 c 0.36,1.2656 0.36,1.4375 0.36,1.7969 0,1.5317 -1.15,2.5157 -2.59,2.5157 -2.42,0 -3.42,-1.969 -3.78,-3.5001 l -3.5,-14 h -7.63 c -1.51,0 -2.5,0 -2.5,-1.6094 0,-1.1719 0.89,-1.1719 2.33,-1.1719 h 7.09 l -6.37,-25.6562 c 0,-0.0938 -0.45,-1.7031 -0.45,-3.0625 0,-4.0313 2.78,-8.1563 8.07,-8.1563 9.07,0 14,13.0157 14,13.9063 0,0.9844 -1.17,0.9844 -1.43,0.9844 -1.18,0 -1.25,-0.2657 -1.8,-1.5313 -2.52,-6.2812 -6.28,-11.125 -10.59,-11.125 -0.99,0 -2.5,0.1875 -2.5,3.6875 0,0.8125 0.26,2.7813 0.71,4.5781 l 6.55,26.375"
         style="fill:#747b86;fill-opacity:1;fill-rule:nonzero;stroke:none"
         id="path130" />
      <path
         d="m 1128.92,80.2813 c 0.36,1.25 0.36,1.4375 0.36,1.875 0,1.625 -1.25,2.5156 -2.59,2.5156 -2.88,0 -3.6,-2.7813 -3.77,-3.5938 l -6.37,-25.75 c -0.63,-2.4218 -4.32,-8.0781 -9.69,-8.0781 -4.58,0 -4.94,4.6719 -4.94,6.9219 0,4.75 2.06,10.9375 5.11,19.2812 0.81,2.0625 1.17,3.0469 1.17,4.8438 0,4.4062 -3.04,7.3594 -7.09,7.3594 -8.52,0 -11.84,-13 -11.84,-13.8125 0,-1.0782 1.07,-1.0782 1.53,-1.0782 1.25,0 1.34,0.4532 1.7,1.5313 0.63,2.3281 3.05,11.125 8.34,11.125 0.89,0 1.89,-0.1875 1.89,-2.5156 0,-2.25 -1,-4.9375 -1.62,-6.6407 -4.13,-11.0312 -5.02,-14.7187 -5.02,-18.6718 0,-8.7813 6.36,-10.5782 10.49,-10.5782 3.78,0 7.09,1.7032 10.14,5.375 1.36,-3.9375 4.58,-5.375 7.55,-5.375 4.12,0 6.01,3.5938 6.71,5.1094 1.63,3.3281 2.8,8.4375 2.8,8.7031 0,1.0782 -1.17,1.0782 -1.53,1.0782 -1.34,0 -1.44,-0.3594 -1.8,-2.0625 -1.53,-5.9219 -3.14,-10.5938 -6.09,-10.5938 -1.72,0 -2.34,1.4375 -2.34,3.6875 0,0.8125 0.26,2.7813 0.71,4.5781 l 6.19,24.7657"
         style="fill:#747b86;fill-opacity:1;fill-rule:nonzero;stroke:none"
         id="path132" />
      <path
         d="m 1143.84,49.4063 c -0.36,-1.25 -0.36,-1.4375 -0.36,-1.875 0,-1.625 1.25,-2.5157 2.61,-2.5157 2.86,0 3.32,1.7969 4.49,6.7344 0.44,1.7031 1.7,6.4531 1.97,7.7031 0.72,2.9688 2.33,9.25 2.87,11.6719 0.36,1.1719 2.88,5.8281 5.02,7.9844 1.36,1.3437 4.31,4.3125 9.15,4.3125 3.41,0 4.22,-2.9688 4.22,-5.8438 0,-5.2031 -3.86,-15.7812 -5.37,-19.8281 -1.08,-2.9531 -1.27,-3.5 -1.27,-5.375 0,-4.8437 3.41,-7.3594 7.1,-7.3594 8.51,0 11.84,13.1875 11.84,13.8125 0,1.0782 -1.17,1.0782 -1.53,1.0782 -1.25,0 -1.35,-0.2657 -1.88,-2.1563 -0.9,-3.2187 -3.42,-10.5 -8.26,-10.5 -0.72,0 -1.88,0.0938 -1.88,2.5156 0,2.1563 1.08,5.0313 1.8,7 1.61,4.3125 5.28,14.2657 5.28,19.3907 0,6 -3.58,9.5 -9.86,9.5 -6.47,0 -10.76,-3.9375 -13.11,-6.8125 -0.79,4.4843 -4.12,6.8125 -7.89,6.8125 -2.97,0 -5.2,-1.7969 -6.83,-5.2032 -1.42,-3.1406 -2.68,-8.1562 -2.68,-8.5156 0,-1.1719 0.98,-1.1719 1.53,-1.1719 1.34,0 1.34,0.3594 1.79,2.1563 1.79,7.1719 3.5,10.5 6,10.5 1.44,0 2.35,-0.8125 2.35,-3.5938 0,-1.8906 -0.55,-4.2187 -0.64,-4.5781 l -6.46,-25.8437"
         style="fill:#747b86;fill-opacity:1;fill-rule:nonzero;stroke:none"
         id="path134" />
      <path
         d="m 1212.52,101.906 c 0,1.438 -1.08,2.953 -2.96,2.953 -2.15,0 -4.31,-1.875 -4.31,-4.125 0,-2.5152 2.06,-3.0465 3.05,-3.0465 2.25,0 4.22,2.0625 4.22,4.2185 z m 1.07,-43.0779 c 0,1.0782 -1.15,1.0782 -1.51,1.0782 -1.27,0 -1.36,-0.2657 -1.89,-2.1563 -0.89,-3.2187 -3.41,-10.5 -8.25,-10.5 -0.72,0 -1.89,0.0938 -1.89,2.5156 0,1.5313 0.54,3.5938 1.53,6.375 1.25,3.3125 1.25,3.5 2.78,7.2657 l 3.05,8.4375 c 0.81,2.0625 1.79,4.75 1.79,6.4531 0,4.4062 -3.04,7.3594 -7.09,7.3594 -8.52,0 -11.84,-13 -11.84,-13.8125 0,-1.0782 1.07,-1.0782 1.53,-1.0782 1.25,0 1.34,0.4532 1.7,1.5313 0.63,2.3281 3.05,11.125 8.34,11.125 0.89,0 1.89,-0.1875 1.89,-2.5156 0,-2.1563 -0.64,-3.9532 -2.15,-8.1719 l -3.14,-8.3438 c -0.55,-1.6093 -1.99,-5.375 -2.25,-6.1875 -0.72,-1.8906 -1.52,-4.0312 -1.52,-5.8281 0,-4.8437 3.41,-7.3594 7.08,-7.3594 8.53,0 11.84,13.1875 11.84,13.8125"
         style="fill:#747b86;fill-opacity:1;fill-rule:nonzero;stroke:none"
         id="path136" />
      <path
         d="m 1235.78,81.8906 h 7.72 c 1.52,0 2.5,0 2.5,1.6094 0,1.1719 -0.89,1.1719 -2.33,1.1719 h -7.17 l 3.31,13.1875 c 0.36,1.2656 0.36,1.4375 0.36,1.7969 0,1.5317 -1.15,2.5157 -2.59,2.5157 -2.42,0 -3.42,-1.969 -3.78,-3.5001 l -3.5,-14 h -7.63 c -1.51,0 -2.5,0 -2.5,-1.6094 0,-1.1719 0.89,-1.1719 2.33,-1.1719 h 7.09 l -6.37,-25.6562 c 0,-0.0938 -0.45,-1.7031 -0.45,-3.0625 0,-4.0313 2.78,-8.1563 8.07,-8.1563 9.07,0 14,13.0157 14,13.9063 0,0.9844 -1.17,0.9844 -1.43,0.9844 -1.18,0 -1.25,-0.2657 -1.8,-1.5313 -2.52,-6.2812 -6.28,-11.125 -10.59,-11.125 -0.99,0 -2.5,0.1875 -2.5,3.6875 0,0.8125 0.26,2.7813 0.71,4.5781 l 6.55,26.375"
         style="fill:#747b86;fill-opacity:1;fill-rule:nonzero;stroke:none"
         id="path138" />
      <path
         d="m 1277.17,79.2031 c -3.31,-0.625 -3.31,-3.4062 -3.31,-3.5937 0,-0.8125 0.53,-2.5156 2.69,-2.5156 1.97,0 3.86,1.5312 3.86,4.8437 0,4.0469 -3.6,7.7188 -10.05,7.7188 -10.5,0 -14.45,-8.3438 -14.45,-13.2813 0,-7 6.01,-8.25 8.7,-8.875 4.22,-0.9062 8.25,-1.7969 8.25,-6.4687 0,-2.5938 -2.14,-9.7813 -11.92,-9.7813 -2.35,0 -7.36,0.6406 -8.8,4.8438 4.22,0.4531 4.22,4.1406 4.22,4.2187 0,2.4219 -2.06,2.9688 -3.05,2.9688 -0.54,0 -4.5,-0.2657 -4.5,-5.5625 0,-5.0313 4.77,-8.7032 12.13,-8.7032 13.72,0 17.22,10.9375 17.22,14.9844 0,2.5156 -0.89,4.8438 -2.69,6.7344 -2.33,2.3281 -4.39,2.7812 -8.44,3.5781 -2.69,0.625 -5.92,1.2656 -5.92,5.125 0,1.6094 1.44,7.9844 9.25,7.9844 2.69,0 5.92,-1.0781 6.81,-4.2188"
         style="fill:#747b86;fill-opacity:1;fill-rule:nonzero;stroke:none"
         id="path140" />
      <path
         d="m 1349.25,101.984 c 0,1.719 -1.25,3.329 -3.41,3.329 -2.34,0 -4.84,-2.063 -4.84,-4.75 0,-2.2505 1.7,-3.3286 3.31,-3.3286 2.78,0 4.94,2.6094 4.94,4.7496 z m -18.3,-60.109 c -1.89,-7.625 -6.64,-12.0312 -11.14,-12.0312 -1.87,0 -2.14,0.1875 -3.22,0.5468 1.71,0.625 3.58,2.5157 3.58,4.75 0,1.9688 -1.51,3.2344 -3.4,3.2344 -2.52,0 -4.94,-2.0625 -4.94,-5.1094 0,-3.8593 3.95,-5.6562 8.08,-5.6562 6.47,0 15.07,4.75 17.32,13.6406 l 8.35,33.1875 c 0.36,1.4375 0.36,2.7813 0.36,2.875 0,4.9375 -3.69,8.3438 -8.71,8.3438 -9.34,0 -14.64,-12.8282 -14.64,-13.8125 0,-0.8125 0.64,-1.0782 1.27,-1.0782 0.89,0 0.98,0.2657 1.7,1.9688 2.52,5.75 6.82,10.6875 11.49,10.6875 2.68,0 2.78,-2.5156 2.78,-4.125 0,-0.0938 0,-1.7969 -0.27,-2.875 l -8.61,-34.5469"
         style="fill:#747b86;fill-opacity:1;fill-rule:nonzero;stroke:none"
         id="path142" />
    </g>
  </g>
</svg>
